<svg width="36" height="36" viewBox="0 0 36 36" fill="none" xmlns="http://www.w3.org/2000/svg">
<path d="M22.5 12H22.515" stroke="#FF133E" stroke-width="3" stroke-linecap="round" stroke-linejoin="round"/>
<path d="M16.5 30H10.5C9.30653 30 8.16193 29.5259 7.31802 28.682C6.47411 27.8381 6 26.6935 6 25.5V10.5C6 9.30653 6.47411 8.16193 7.31802 7.31802C8.16193 6.47411 9.30653 6 10.5 6H25.5C26.6935 6 27.8381 6.47411 28.682 7.31802C29.5259 8.16193 30 9.30653 30 10.5V16.5" stroke="#FF133E" stroke-width="3" stroke-linecap="round" stroke-linejoin="round"/>
<path d="M6 22.5L12 16.5C13.392 15.1605 15.108 15.1605 16.5 16.5L21 21" stroke="#FF133E" stroke-width="3" stroke-linecap="round" stroke-linejoin="round"/>
<path d="M21 21L22.5 19.5C22.965 19.053 23.466 18.7545 23.9805 18.606" stroke="#FF133E" stroke-width="3" stroke-linecap="round" stroke-linejoin="round"/>
<path d="M27.63 23.415C27.9225 23.1224 28.2698 22.8904 28.652 22.7321C29.0342 22.5738 29.4438 22.4923 29.8575 22.4923C30.2712 22.4923 30.6808 22.5738 31.063 22.7321C31.4452 22.8904 31.7925 23.1224 32.085 23.415C32.3775 23.7075 32.6096 24.0548 32.7679 24.437C32.9262 24.8192 33.0077 25.2288 33.0077 25.6425C33.0077 26.0562 32.9262 26.4658 32.7679 26.848C32.6096 27.2302 32.3775 27.5774 32.085 27.87L27 33H22.5V28.5L27.63 23.415Z" stroke="#FF133E" stroke-width="3" stroke-linecap="round" stroke-linejoin="round"/>
</svg>
