<svg width="263" height="27" viewBox="0 0 263 27" fill="none" xmlns="http://www.w3.org/2000/svg">
<path d="M20.7619 13.481C20.7619 14.96 20.6608 16.382 20.4586 17.7472C20.2563 19.1124 19.8518 20.389 19.2451 21.5772C18.651 22.7655 17.7535 23.8273 16.5527 24.7626C15.9712 25.2177 15.2697 25.5843 14.448 25.8624C13.639 26.1405 12.8111 26.3427 11.9642 26.4691C11.1173 26.5955 10.3399 26.6587 9.63202 26.6587C8.55757 26.6587 7.50843 26.6524 6.48455 26.6397C5.47333 26.6271 4.45576 26.6081 3.43188 26.5829C2.42066 26.5576 1.36517 26.5323 0.265449 26.507L0 26.2605V0.739466L0.265449 0.492978C1.35251 0.455056 2.4017 0.423454 3.41292 0.398174C4.4368 0.37289 5.46067 0.360253 6.48455 0.360253C7.50843 0.347611 8.55757 0.341292 9.63202 0.341292C10.3399 0.341292 11.1173 0.404493 11.9642 0.530899C12.8237 0.657317 13.658 0.859537 14.467 1.13764C15.2886 1.41574 15.9838 1.7823 16.5527 2.23736C17.7409 3.17274 18.632 4.23454 19.2261 5.42275C19.8329 6.61097 20.2373 7.88764 20.4396 9.25281C20.6545 10.6053 20.7619 12.0148 20.7619 13.481ZM14.8272 13.481C14.8272 12.4951 14.7641 11.4965 14.6376 10.4853C14.5239 9.47403 14.29 8.54496 13.9361 7.69803C13.5822 6.8385 13.0576 6.14957 12.3624 5.63132C11.6798 5.11308 10.7697 4.85393 9.63202 4.85393C8.97471 4.85393 8.3427 4.85393 7.73596 4.85393C7.12921 4.84128 6.4719 4.82867 5.76404 4.81601V22.165C6.4719 22.1524 7.12921 22.1461 7.73596 22.1461C8.3427 22.1461 8.97471 22.1461 9.63202 22.1461C10.7697 22.1461 11.6798 21.8869 12.3624 21.3687C13.0576 20.8378 13.5822 20.1489 13.9361 19.302C14.29 18.4424 14.5239 17.507 14.6376 16.4958C14.7641 15.4719 14.8272 14.467 14.8272 13.481ZM29.6948 13.481C29.6948 14.5049 29.7517 15.5478 29.8655 16.6096C29.9918 17.6713 30.2257 18.651 30.567 19.5485C30.9209 20.4459 31.4392 21.1728 32.1218 21.7289C32.8044 22.2725 33.7081 22.5442 34.8331 22.5442C35.9581 22.5442 36.8619 22.2725 37.5445 21.7289C38.2271 21.1728 38.7391 20.4459 39.0804 19.5485C39.4341 18.651 39.6682 17.6713 39.782 16.6096C39.9081 15.5478 39.9716 14.5049 39.9716 13.481C39.9716 12.4572 39.9081 11.4206 39.782 10.3715C39.6682 9.30969 39.4341 8.33639 39.0804 7.45155C38.7391 6.55409 38.2271 5.83358 37.5445 5.29003C36.8619 4.73386 35.9581 4.45576 34.8331 4.45576C33.7081 4.45576 32.8044 4.73386 32.1218 5.29003C31.4392 5.83358 30.9209 6.55409 30.567 7.45155C30.2257 8.33639 29.9918 9.30969 29.8655 10.3715C29.7517 11.4206 29.6948 12.4572 29.6948 13.481ZM23.6653 13.481C23.6653 10.7886 24.0698 8.43119 24.8788 6.40871C25.6878 4.38622 26.9139 2.81249 28.5572 1.6875C30.2131 0.562514 32.305 0 34.8331 0C37.3865 0 39.4848 0.56882 41.1282 1.70646C42.7839 2.8441 44.0102 4.42414 44.8065 6.44663C45.6153 8.46912 46.02 10.8139 46.02 13.481C46.02 16.1735 45.6153 18.5372 44.8065 20.5723C43.9974 22.5948 42.765 24.1749 41.1092 25.3125C39.4658 26.4375 37.3739 27 34.8331 27C32.9244 27 31.2685 26.6777 29.8655 26.033C28.4624 25.3757 27.2994 24.4466 26.3767 23.2458C25.4666 22.045 24.784 20.6166 24.3289 18.9607C23.8865 17.3048 23.6653 15.4782 23.6653 13.481ZM68.7741 8.51334C68.7741 9.72683 68.5404 10.8013 68.0725 11.7367C67.6175 12.672 67.0297 13.4558 66.3092 14.0878C65.6015 14.7072 64.8682 15.1622 64.1098 15.4529C64.8179 15.6931 65.4057 16.1229 65.8731 16.7423C66.3409 17.3617 66.7201 18.0822 67.0107 18.9038L68.2242 22.2788C68.4394 22.8982 68.6982 23.4417 69.0016 23.9094C69.3178 24.3645 69.6718 24.75 70.0634 25.066C69.7097 25.559 69.1722 25.9698 68.4517 26.2985C67.7312 26.6145 66.9918 26.7725 66.2334 26.7725C65.1843 26.7725 64.4197 26.4944 63.9391 25.9382C63.4717 25.3694 63.0418 24.5288 62.6498 23.4164L61.2088 19.302C60.9812 18.6194 60.6338 18.0379 60.1659 17.5576C59.7109 17.0646 58.9652 16.8181 57.9286 16.8181H53.7951V12.4761C54.2881 12.4509 54.8949 12.4255 55.6154 12.4003C56.3487 12.375 57.044 12.3561 57.701 12.3434C58.3585 12.3181 58.8387 12.3055 59.1421 12.3055C60.1408 12.3055 60.9054 12.1285 61.4363 11.7746C61.98 11.408 62.353 10.934 62.555 10.3525C62.7574 9.77105 62.8584 9.15801 62.8584 8.51334C62.8584 7.83076 62.7574 7.20506 62.555 6.63624C62.353 6.06742 61.98 5.61236 61.4363 5.27107C60.9054 4.91712 60.1408 4.74017 59.1421 4.74017C58.8766 4.74017 58.5798 4.74017 58.2509 4.74017C57.9224 4.74017 57.5811 4.74017 57.227 4.74017C56.8734 4.72751 56.5131 4.7149 56.1463 4.70225V26.4501C55.6661 26.5386 55.1669 26.5955 54.6484 26.6208C54.1303 26.6461 53.669 26.6587 53.2642 26.6587C52.9106 26.6587 52.4617 26.6461 51.918 26.6208C51.3748 26.5955 50.869 26.5386 50.4012 26.4501V0.739466L50.6666 0.492978C52.2593 0.455056 53.7951 0.423454 55.2741 0.398174C56.753 0.360253 58.2006 0.341292 59.6161 0.341292C61.3732 0.341292 62.9408 0.632009 64.3183 1.21348C65.6963 1.7823 66.7832 2.67346 67.5796 3.88694C68.3759 5.08777 68.7741 6.62993 68.7741 8.51334ZM79.4786 0.549859C79.9464 0.486671 80.5025 0.436095 81.1472 0.398174C81.7918 0.360253 82.3545 0.341292 82.8347 0.341292C83.3025 0.341292 83.8585 0.360253 84.5032 0.398174C85.1606 0.436095 85.7167 0.499284 86.1717 0.587781L94.3817 26.0709C93.9773 26.2985 93.4592 26.4691 92.8269 26.5829C92.195 26.7093 91.6011 26.7725 91.0446 26.7725C90.1345 26.7725 89.4206 26.5639 88.9021 26.1468C88.3839 25.717 87.9479 24.8827 87.5938 23.644L84.6928 13.5379C84.3894 12.4635 84.042 11.2247 83.65 9.82163C83.2708 8.41854 82.9295 7.10395 82.6261 5.87781H82.3986C82.209 6.90169 81.9311 8.07725 81.5643 9.4045C81.2106 10.7191 80.8883 11.8694 80.5973 12.8553L76.5397 26.4881C76.1861 26.5766 75.8002 26.6334 75.3831 26.6587C74.966 26.684 74.5365 26.6966 74.0938 26.6966C73.6515 26.6966 73.1585 26.665 72.6149 26.6018C72.0716 26.5386 71.6289 26.4438 71.2876 26.3174L71.079 26.014L79.4786 0.549859ZM79.8199 20.9136C79.6431 20.9136 79.4283 20.9136 79.1752 20.9136C78.9226 20.901 78.6699 20.8947 78.4168 20.8947C78.1769 20.882 77.9684 20.8757 77.7911 20.8757H74.7764L76.5587 16.3441H79.1942C79.3715 16.3441 79.58 16.3441 79.8199 16.3441C80.0602 16.3314 80.3005 16.3251 80.5404 16.3251C80.7807 16.3125 80.9831 16.3062 81.1472 16.3062H84.0481C84.2254 16.3062 84.4339 16.3125 84.6738 16.3251C84.9141 16.3251 85.1545 16.3314 85.3943 16.3441C85.6347 16.3441 85.8432 16.3441 86.0201 16.3441H88.7504L90.2104 20.8757H87.2146C87.0377 20.8757 86.823 20.882 86.5699 20.8947C86.3172 20.8947 86.0646 20.901 85.8115 20.9136C85.5716 20.9136 85.363 20.9136 85.1858 20.9136H79.8199ZM98.9615 0.587781C99.5683 0.486671 100.238 0.417135 100.971 0.37921C101.704 0.328651 102.337 0.303371 102.867 0.303371C103.386 0.303371 103.967 0.328651 104.612 0.37921C105.269 0.417135 105.907 0.486671 106.527 0.587781L108.954 10.2198C109.017 10.46 109.105 10.8582 109.219 11.4143C109.345 11.9705 109.485 12.5962 109.636 13.2914C109.788 13.974 109.927 14.6503 110.054 15.3202C110.192 15.9775 110.3 16.5337 110.376 16.9888H110.622C110.698 16.5337 110.805 15.9775 110.945 15.3202C111.084 14.6503 111.222 13.974 111.362 13.2914C111.513 12.5962 111.652 11.9705 111.779 11.4143C111.918 10.8582 112.013 10.46 112.063 10.2198L114.49 0.587781C115.109 0.486671 115.742 0.417135 116.386 0.37921C117.043 0.328651 117.631 0.303371 118.15 0.303371C118.668 0.303371 119.294 0.328651 120.027 0.37921C120.76 0.417135 121.436 0.486671 122.056 0.587781L124.065 26.3743C123.648 26.4754 123.168 26.5449 122.624 26.5829C122.094 26.6334 121.594 26.6587 121.127 26.6587C120.697 26.6587 120.267 26.6461 119.837 26.6208C119.42 26.5955 119.009 26.5513 118.605 26.4881L117.979 15.4719C117.928 14.5997 117.878 13.658 117.827 12.6468C117.789 11.6229 117.752 10.6117 117.714 9.61306C117.688 8.60184 117.676 7.69173 117.676 6.88273H117.41L113.485 22.6201C113.056 22.6833 112.55 22.7338 111.969 22.7718C111.387 22.8097 110.894 22.8287 110.49 22.8287C110.11 22.8287 109.63 22.8097 109.049 22.7718C108.467 22.7338 107.961 22.6833 107.532 22.6201L103.588 6.88273H103.341C103.341 7.69173 103.322 8.60184 103.285 9.61306C103.247 10.6117 103.209 11.6229 103.171 12.6468C103.133 13.658 103.088 14.5997 103.038 15.4719L102.412 26.4881C101.995 26.5513 101.578 26.5955 101.161 26.6208C100.744 26.6461 100.314 26.6587 99.8717 26.6587C99.4038 26.6587 98.8981 26.6334 98.3548 26.5829C97.8239 26.5449 97.3561 26.4754 96.9517 26.3743L98.9615 0.587781ZM135.028 0.549859C135.495 0.486671 136.051 0.436095 136.696 0.398174C137.341 0.360253 137.903 0.341292 138.384 0.341292C138.852 0.341292 139.408 0.360253 140.052 0.398174C140.71 0.436095 141.266 0.499284 141.721 0.587781L149.931 26.0709C149.526 26.2985 149.008 26.4691 148.376 26.5829C147.744 26.7093 147.15 26.7725 146.594 26.7725C145.684 26.7725 144.969 26.5639 144.451 26.1468C143.933 25.717 143.497 24.8827 143.143 23.644L140.242 13.5379C139.938 12.4635 139.591 11.2247 139.199 9.82163C138.82 8.41854 138.478 7.10395 138.175 5.87781H137.948C137.758 6.90169 137.48 8.07725 137.113 9.4045C136.759 10.7191 136.437 11.8694 136.146 12.8553L132.089 26.4881C131.735 26.5766 131.349 26.6334 130.932 26.6587C130.515 26.684 130.085 26.6966 129.643 26.6966C129.201 26.6966 128.708 26.665 128.164 26.6018C127.62 26.5386 127.178 26.4438 126.837 26.3174L126.628 26.014L135.028 0.549859ZM135.369 20.9136C135.192 20.9136 134.977 20.9136 134.724 20.9136C134.472 20.901 134.219 20.8947 133.966 20.8947C133.726 20.882 133.517 20.8757 133.34 20.8757H130.325L132.108 16.3441H134.743C134.92 16.3441 135.129 16.3441 135.369 16.3441C135.609 16.3314 135.849 16.3251 136.089 16.3251C136.33 16.3125 136.532 16.3062 136.696 16.3062H139.597C139.774 16.3062 139.983 16.3125 140.223 16.3251C140.463 16.3251 140.703 16.3314 140.943 16.3441C141.184 16.3441 141.392 16.3441 141.569 16.3441H144.299L145.759 20.8757H142.764C142.587 20.8757 142.372 20.882 142.119 20.8947C141.866 20.8947 141.613 20.901 141.361 20.9136C141.12 20.9136 140.912 20.9136 140.735 20.9136H135.369ZM150.964 24.1938C151.04 23.3722 151.293 22.5632 151.723 21.7669C152.166 20.9705 152.665 20.3322 153.221 19.8518C154.295 20.4965 155.509 21.0716 156.861 21.5772C158.214 22.0829 159.56 22.3357 160.9 22.3357C162.063 22.3357 162.91 22.0639 163.441 21.5204C163.972 20.9642 164.237 20.3511 164.237 19.6812C164.237 19.2009 164.079 18.6952 163.763 18.1643C163.46 17.6208 162.771 17.1278 161.696 16.6854L157.127 14.7704C155.56 14.113 154.264 13.2409 153.24 12.1538C152.229 11.0667 151.723 9.62572 151.723 7.83076C151.723 6.27598 152.128 4.91081 152.936 3.73525C153.746 2.55969 154.839 1.64327 156.217 0.985955C157.607 0.32865 159.156 0 160.862 0C162.632 0 164.294 0.227528 165.849 0.682584C167.403 1.13764 168.674 1.62431 169.66 2.14256C169.609 2.96417 169.407 3.76687 169.053 4.55056C168.699 5.32164 168.244 5.96631 167.688 6.48455C166.715 6.01684 165.59 5.5934 164.313 5.21419C163.036 4.83497 161.892 4.64537 160.881 4.64537C159.756 4.64537 158.935 4.90451 158.416 5.42275C157.911 5.941 157.658 6.49086 157.658 7.07233C157.658 7.60323 157.835 8.07094 158.189 8.47542C158.555 8.86729 159.162 9.24016 160.009 9.5941L164.654 11.5281C165.855 12.0211 166.879 12.6405 167.726 13.3862C168.586 14.1194 169.236 14.96 169.679 15.908C170.134 16.8434 170.361 17.861 170.361 18.9607C170.361 20.4775 169.995 21.8427 169.262 23.0562C168.541 24.2697 167.448 25.2304 165.981 25.9382C164.528 26.6461 162.701 27 160.502 27C158.96 27 157.329 26.7598 155.61 26.2795C153.903 25.7865 152.355 25.0913 150.964 24.1938ZM171.444 0.891152C171.886 0.701545 172.379 0.543553 172.923 0.417135C173.466 0.290729 173.997 0.227528 174.515 0.227528C175.526 0.227528 176.26 0.448737 176.715 0.891152C177.183 1.32094 177.511 2.15521 177.701 3.39396L179.407 13.6138C179.546 14.4101 179.685 15.276 179.824 16.2114C179.963 17.1468 180.09 18.0506 180.203 18.9228C180.33 19.7823 180.425 20.5155 180.488 21.1222C180.513 21.3624 180.545 21.5077 180.583 21.5583C180.633 21.5962 180.722 21.6152 180.848 21.6152L184.128 1.0618C184.697 0.960688 185.317 0.891152 185.986 0.85323C186.656 0.802655 187.27 0.777388 187.826 0.777388C188.42 0.777388 189.045 0.802655 189.703 0.85323C190.373 0.891152 190.979 0.960688 191.523 1.0618L194.557 21.1222C194.595 21.3624 194.639 21.5077 194.689 21.5583C194.753 21.5962 194.841 21.6152 194.955 21.6152C195.031 20.9073 195.132 20.0857 195.258 19.1503C195.385 18.2149 195.524 17.2542 195.675 16.2683C195.827 15.2823 195.973 14.3785 196.111 13.5569L198.368 0.549859C198.798 0.461375 199.24 0.404493 199.695 0.37921C200.15 0.35393 200.573 0.341292 200.965 0.341292C201.408 0.341292 201.876 0.37289 202.369 0.436095C202.861 0.499284 203.304 0.594087 203.696 0.720506L203.98 1.0618L198.899 26.4122C198.241 26.4881 197.439 26.5449 196.491 26.5829C195.555 26.6334 194.708 26.6587 193.95 26.6587C193.091 26.6587 192.332 26.5133 191.675 26.2226C191.017 25.9319 190.6 25.205 190.423 24.0421L189.058 15.5667C188.831 14.113 188.609 12.5836 188.395 10.9782C188.192 9.37288 188.028 7.94452 187.902 6.69312H187.617C187.465 7.94452 187.276 9.37288 187.048 10.9782C186.821 12.5709 186.58 14.1004 186.328 15.5667L184.508 26.4122C183.812 26.4881 183.022 26.5449 182.137 26.5829C181.265 26.6334 180.437 26.6587 179.654 26.6587C178.731 26.6587 177.941 26.5133 177.284 26.2226C176.639 25.9319 176.203 25.1987 175.975 24.0232L171.444 0.891152ZM211.969 13.481C211.969 14.5049 212.026 15.5478 212.14 16.6096C212.266 17.6713 212.5 18.651 212.841 19.5485C213.195 20.4459 213.714 21.1728 214.396 21.7289C215.079 22.2725 215.982 22.5442 217.108 22.5442C218.232 22.5442 219.136 22.2725 219.819 21.7289C220.502 21.1728 221.013 20.4459 221.355 19.5485C221.708 18.651 221.943 17.6713 222.056 16.6096C222.182 15.5478 222.246 14.5049 222.246 13.481C222.246 12.4572 222.182 11.4206 222.056 10.3715C221.943 9.30969 221.708 8.33639 221.355 7.45155C221.013 6.55409 220.502 5.83358 219.819 5.29003C219.136 4.73386 218.232 4.45576 217.108 4.45576C215.982 4.45576 215.079 4.73386 214.396 5.29003C213.714 5.83358 213.195 6.55409 212.841 7.45155C212.5 8.33639 212.266 9.30969 212.14 10.3715C212.026 11.4206 211.969 12.4572 211.969 13.481ZM205.94 13.481C205.94 10.7886 206.344 8.43119 207.153 6.40871C207.962 4.38622 209.188 2.81249 210.832 1.6875C212.487 0.562514 214.579 0 217.108 0C219.661 0 221.759 0.56882 223.402 1.70646C225.058 2.8441 226.285 4.42414 227.081 6.44663C227.89 8.46912 228.294 10.8139 228.294 13.481C228.294 16.1735 227.89 18.5372 227.081 20.5723C226.272 22.5948 225.039 24.1749 223.384 25.3125C221.74 26.4375 219.648 27 217.108 27C215.199 27 213.543 26.6777 212.14 26.033C210.737 25.3757 209.574 24.4466 208.651 23.2458C207.741 22.045 207.058 20.6166 206.603 18.9607C206.161 17.3048 205.94 15.4782 205.94 13.481ZM230.325 0.891152C230.768 0.701545 231.261 0.543553 231.804 0.417135C232.348 0.290729 232.879 0.227528 233.397 0.227528C234.408 0.227528 235.141 0.448737 235.596 0.891152C236.064 1.32094 236.393 2.15521 236.582 3.39396L238.289 13.6138C238.428 14.4101 238.567 15.276 238.706 16.2114C238.845 17.1468 238.971 18.0506 239.085 18.9228C239.212 19.7823 239.306 20.5155 239.369 21.1222C239.395 21.3624 239.426 21.5077 239.464 21.5583C239.515 21.5962 239.604 21.6152 239.73 21.6152L243.01 1.0618C243.579 0.960688 244.198 0.891152 244.868 0.85323C245.538 0.802655 246.151 0.777388 246.707 0.777388C247.302 0.777388 247.927 0.802655 248.584 0.85323C249.255 0.891152 249.861 0.960688 250.405 1.0618L253.438 21.1222C253.476 21.3624 253.521 21.5077 253.571 21.5583C253.634 21.5962 253.723 21.6152 253.836 21.6152C253.912 20.9073 254.014 20.0857 254.14 19.1503C254.266 18.2149 254.405 17.2542 254.557 16.2683C254.709 15.2823 254.854 14.3785 254.993 13.5569L257.249 0.549859C257.679 0.461375 258.122 0.404493 258.577 0.37921C259.032 0.35393 259.455 0.341292 259.847 0.341292C260.29 0.341292 260.757 0.37289 261.25 0.436095C261.743 0.499284 262.186 0.594087 262.577 0.720506L262.862 1.0618L257.78 26.4122C257.123 26.4881 256.32 26.5449 255.372 26.5829C254.437 26.6334 253.59 26.6587 252.832 26.6587C251.972 26.6587 251.214 26.5133 250.556 26.2226C249.899 25.9319 249.482 25.205 249.305 24.0421L247.94 15.5667C247.712 14.113 247.491 12.5836 247.276 10.9782C247.074 9.37288 246.91 7.94452 246.783 6.69312H246.499C246.347 7.94452 246.157 9.37288 245.93 10.9782C245.702 12.5709 245.462 14.1004 245.209 15.5667L243.389 26.4122C242.694 26.4881 241.904 26.5449 241.019 26.5829C240.147 26.6334 239.319 26.6587 238.535 26.6587C237.613 26.6587 236.823 26.5133 236.165 26.2226C235.52 25.9319 235.084 25.1987 234.857 24.0232L230.325 0.891152Z" fill="#90CAF9"/>
</svg>
