<svg width="62" height="27" viewBox="0 0 62 27" fill="none" xmlns="http://www.w3.org/2000/svg">
<path fill-rule="evenodd" clip-rule="evenodd" d="M0 0V27H6.13636V15.9545H9.81818V27H15.9545V0H9.81818V9.81818H6.13636V0H0ZM18.4091 0V27H28.6875C32.5602 27 35.7526 24.1275 36.2741 20.3986C38.6297 24.3475 42.9315 27 47.8636 27C55.3193 27 61.3636 20.9557 61.3636 13.5C61.3636 6.04432 55.3193 0 47.8636 0C42.9315 0 38.6297 2.65246 36.2741 6.60139C35.7526 2.87249 32.5602 0 28.6875 0H18.4091ZM24.5455 6.13636H28.2273C29.5834 6.13636 30.6818 7.23477 30.6818 8.59091C30.6818 9.94705 29.5834 11.0455 28.2273 11.0455H24.5455V6.13636ZM47.8636 6.13636C51.9308 6.13636 55.2273 9.43282 55.2273 13.5C55.2273 17.5672 51.9308 20.8636 47.8636 20.8636C43.7965 20.8636 40.5 17.5672 40.5 13.5C40.5 9.43282 43.7965 6.13636 47.8636 6.13636ZM47.8636 8.59091C46.5617 8.59091 45.313 9.10812 44.3924 10.0287C43.4718 10.9494 42.9545 12.198 42.9545 13.5C42.9545 14.802 43.4718 16.0506 44.3924 16.9713C45.313 17.8919 46.5617 18.4091 47.8636 18.4091C49.1656 18.4091 50.4143 17.8919 51.3349 16.9713C52.2555 16.0506 52.7727 14.802 52.7727 13.5C52.7727 12.198 52.2555 10.9494 51.3349 10.0287C50.4143 9.10812 49.1656 8.59091 47.8636 8.59091ZM34.3636 11.9659C34.22 12.5881 34.1967 14.4143 34.3636 15.0341C33.896 14.3247 33.1747 13.8068 31.9474 13.5C33.1747 13.1932 33.9525 12.4691 34.3636 11.9659ZM24.5455 16.875H28.2273C29.5834 16.875 30.6818 17.9734 30.6818 19.3295C30.6818 20.6857 29.5834 21.7841 28.2273 21.7841H24.5455V16.875Z" fill="white"/>
</svg>
