<svg width="175" height="27" viewBox="0 0 175 27" fill="none" xmlns="http://www.w3.org/2000/svg">
<g clip-path="url(#clip0_89_698)">
<path d="M174.438 2.24278H171.574C171.424 2.23135 171.396 2.13458 171.393 2.07819V2.05456C171.394 2.04542 171.396 2.03932 171.396 2.03932L171.393 2.04085V0.32096V0.320198C171.393 0.20818 171.302 0.116738 171.188 0.116738H167.604C167.491 0.116738 167.399 0.20818 167.399 0.32096V2.03932C167.399 2.03932 167.399 2.04009 167.399 2.04085V2.09343C167.393 2.14982 167.358 2.23212 167.223 2.24278H157.905C157.755 2.23135 157.727 2.13458 157.725 2.07819V2.05456C157.725 2.04542 157.726 2.03932 157.726 2.03932L157.725 2.04085V0.32096C157.725 0.20818 157.633 0.116738 157.52 0.116738C157.519 0.116738 157.519 0.116738 157.518 0.116738H153.935C153.822 0.116738 153.73 0.20818 153.73 0.32096V2.03932C153.73 2.03932 153.73 2.04009 153.73 2.04085V2.09343C153.723 2.14982 153.689 2.23212 153.554 2.24278H150.697C150.513 2.24278 150.514 2.41043 150.514 2.41043V5.09885C150.514 5.09961 150.514 5.09961 150.514 5.09961C150.514 5.21239 150.605 5.30384 150.718 5.30384H153.528C153.685 5.30536 153.723 5.39528 153.73 5.45548V5.5073C153.73 5.50806 153.73 5.50882 153.73 5.50882V7.59143C153.73 7.70421 153.822 7.79565 153.935 7.79565H157.518C157.519 7.79565 157.52 7.79565 157.52 7.79565C157.633 7.79565 157.725 7.70421 157.725 7.59143V5.5073L157.726 5.50882C157.726 5.50882 157.725 5.50349 157.725 5.49358V5.46996C157.727 5.41052 157.757 5.30536 157.928 5.30384H167.197C167.355 5.30536 167.392 5.39528 167.399 5.45548V5.5073C167.399 5.50806 167.399 5.50882 167.399 5.50882V7.59143C167.399 7.70421 167.491 7.79565 167.604 7.79565H171.188C171.188 7.79565 171.188 7.79565 171.189 7.79565C171.302 7.79565 171.393 7.70421 171.393 7.59143V5.5073L171.395 5.50882C171.395 5.50882 171.394 5.50349 171.393 5.49358V5.46996C171.396 5.41052 171.426 5.30536 171.597 5.30384H174.438C174.551 5.30384 174.643 5.21239 174.643 5.09961V2.44701C174.643 2.33423 174.551 2.24278 174.438 2.24278Z" fill="#00DC5A"/>
<path d="M97.0912 3.55188C97.0912 3.55188 97.0935 3.84526 97.4288 3.84526C99.4306 3.84526 110.024 3.68371 112.266 3.68371C113.995 3.68371 117.184 3.51835 118.884 3.23031C118.988 3.21278 119.148 3.10762 119.109 2.83177C119.07 2.55592 118.736 0.717914 118.672 0.522074C118.608 0.325471 118.484 0.268319 118.297 0.291942C116.203 0.605896 113.728 0.72401 111.61 0.72401C111.61 0.72401 97.79 0.885559 97.4349 0.885559C97.0806 0.885559 97.0912 1.20713 97.0912 1.20713V3.55188Z" fill="#00DC5A"/>
<path d="M118.741 6.49448H116.687C116.687 6.49448 116.609 6.49372 116.609 6.41066C116.605 5.50156 116.603 4.93004 116.603 4.93004C116.603 4.93004 116.616 4.72811 116.394 4.72811H113.032C112.821 4.72811 112.814 4.94376 112.814 4.94376C112.814 4.94376 112.814 5.51299 112.814 6.41066C112.814 6.49372 112.736 6.49448 112.736 6.49448H109.812C109.812 6.49448 109.734 6.49372 109.734 6.41066C109.731 5.50156 109.734 4.93004 109.734 4.93004C109.734 4.93004 109.742 4.72811 109.52 4.72811H106.01C105.8 4.72811 105.793 4.94376 105.793 4.94376C105.793 4.94376 105.793 5.51299 105.793 6.41066C105.793 6.49372 105.715 6.49448 105.715 6.49448H102.694C102.694 6.49448 102.616 6.49372 102.616 6.41066C102.613 5.50156 102.609 4.93004 102.609 4.93004C102.609 4.93004 102.624 4.72811 102.402 4.72811H99.0386C98.8146 4.72811 98.8215 4.94376 98.8215 4.94376C98.8215 4.94376 98.8215 5.51299 98.8215 6.41066C98.8215 6.49372 98.7437 6.49448 98.7437 6.49448H95.6994C95.4868 6.49448 95.3702 6.61945 95.3702 6.80081C95.3702 7.67409 95.371 9.82986 95.3702 10.3252C95.3702 10.3252 95.3657 10.5576 95.6141 10.5576H99.1552C99.4105 10.5576 99.396 10.3427 99.396 10.3427C99.396 10.0752 99.3968 9.77575 99.3968 9.51971C99.3968 9.51971 99.3983 9.33149 99.598 9.33149H109.594V9.32768H115.959C116.172 9.32768 116.216 9.43056 116.216 9.59592V10.4882C116.216 10.4882 116.216 10.7138 116.424 10.7138H120.031C120.227 10.7138 120.239 10.5065 120.239 10.5065C120.237 9.93502 120.239 8.94515 120.239 8.45212C120.239 7.34337 119.963 6.49448 118.741 6.49448Z" fill="#00DC5A"/>
<path d="M118.888 11.4398H104.692C104.605 11.4398 104.619 11.3689 104.619 11.3689C104.658 11.0831 104.683 10.8705 104.71 10.5718C104.723 10.4255 104.607 10.3432 104.507 10.3432H100.764C100.69 10.3432 100.642 10.3752 100.604 10.4187C100.562 10.4674 100.559 10.5352 100.559 10.5352C100.538 10.8545 100.513 11.0877 100.473 11.4078C100.473 11.4085 100.473 11.4093 100.473 11.4108C100.473 11.407 100.473 11.404 100.474 11.4009C100.471 11.4261 100.444 11.4413 100.421 11.4398H96.1671C96.1663 11.4398 96.1663 11.4398 96.1656 11.4398C96.0528 11.4398 95.9606 11.5312 95.9606 11.644V14.1495C95.9606 14.2623 96.0528 14.3537 96.1656 14.3537H99.7997C99.7997 14.3537 99.8614 14.3537 99.8484 14.404C98.8936 17.6922 97.0693 21.0093 94.5836 24.2723C94.448 24.4871 94.6103 24.5816 94.6103 24.5816C94.6697 24.6274 97.3353 26.4532 97.4519 26.5263C97.5852 26.6094 97.7117 26.5438 97.7605 26.4814C99.9163 23.7045 101.46 20.9681 102.632 18.2805C102.632 18.2805 102.666 18.189 102.812 18.189H113.133C113.515 18.189 113.33 18.5037 113.294 18.5944C112.94 19.4829 112.112 20.7029 110.245 21.7385L110.093 21.8254C110.056 21.8452 110.02 21.8627 109.983 21.8818C108.529 21.2783 107.366 20.1086 106.862 19.4395C106.83 19.4006 106.742 19.3442 106.569 19.3442H102.81C102.339 19.3442 102.655 19.8479 102.655 19.8479V19.8472C103.415 21.0093 104.318 22.0708 105.665 23.0858C104.094 23.4958 102.244 23.6786 100.383 23.6962C100.226 23.6977 100.14 23.8044 100.14 23.9133V26.7572C100.14 26.9668 100.335 26.9965 100.433 26.998C103.312 27.0346 106.843 26.4615 109.925 25.4389C112.481 26.3853 115.758 26.9919 118.842 26.9919C118.959 26.9919 119.057 26.9378 119.057 26.7915V23.9027C119.057 23.7693 118.996 23.6939 118.844 23.6885C116.856 23.6169 115.593 23.4302 114.357 23.0675C115.231 22.3001 116.184 21.2973 116.67 20.5216C117.401 19.3564 117.758 18.3155 117.906 17.5139C117.983 17.0948 117.987 15.6096 116.434 15.6096H103.75C103.646 15.6096 103.673 15.5341 103.673 15.5341L103.672 15.5349C103.79 15.1661 103.9 14.7972 104 14.43C104 14.43 104.021 14.3537 104.085 14.3537H118.892C119.003 14.3515 119.092 14.2608 119.092 14.1495V11.644C119.092 11.5312 119 11.4398 118.888 11.4398Z" fill="#00DC5A"/>
<path d="M124.26 5.03476H131.601C131.63 5.03552 131.688 5.0439 131.647 5.09724C129.984 6.80189 127.258 7.4397 124.978 7.79023C124.745 7.82605 124.599 7.86339 124.599 8.15982V10.4962C124.599 10.7835 124.822 10.7393 124.932 10.7271C127.611 10.4238 130.681 9.55432 132.472 8.33889C133.706 7.50143 134.655 6.75388 135.431 5.71753C137.558 8.71533 140.939 10.2523 146.193 10.7248C146.293 10.7339 146.495 10.6966 146.495 10.5053V8.08514C146.495 7.81081 146.342 7.81691 146.226 7.80395C143.379 7.49609 140.554 6.57176 139.108 5.098C139.066 5.0439 139.124 5.03552 139.154 5.03476H146.512C146.512 5.03476 146.713 5.03018 146.713 4.84425V2.1444C146.713 1.94246 146.472 1.95237 146.472 1.95237H137.689C137.569 1.94246 137.546 1.86855 137.544 1.82511V1.79844C137.544 1.79615 137.544 1.79311 137.544 1.79311V1.79387V0.184472C137.544 -0.000699997 137.375 0.000823975 137.375 0.000823975L133.405 6.19888e-05C133.405 6.19888e-05 133.22 -0.00984383 133.22 0.208095V1.79387V1.79311V1.79539V1.82892C133.216 1.87236 133.192 1.94246 133.075 1.95237H132.993H124.236C124.051 1.95237 124.051 2.12001 124.051 2.12001V4.85035C124.051 4.85035 124.042 5.03476 124.26 5.03476Z" fill="#00DC5A"/>
<path d="M136.063 18.8869V22.4737V22.5728C136.063 22.7549 135.915 22.9035 135.732 22.9035H134.713H128.688C128.505 22.9035 128.357 22.7549 128.357 22.5728V22.4737V18.8869V18.7878C128.357 18.6049 128.505 18.4571 128.688 18.4571H134.713H135.4H135.732C135.915 18.4571 136.063 18.6049 136.063 18.7878V18.8869ZM137.599 15.8281H135.4H134.713H126.821C125.616 15.8281 124.64 16.802 124.64 18.0029V18.8869V22.4737V23.3569C124.64 24.5586 125.616 25.5325 126.821 25.5325H134.713H135.853H137.599C138.803 25.5325 139.78 24.5586 139.78 23.3569V22.4737V18.8869V18.0029C139.78 16.802 138.803 15.8281 137.599 15.8281Z" fill="#00DC5A"/>
<path d="M147.599 11.2122H123.166C123.053 11.2122 122.961 11.3037 122.961 11.4165V14.0942C122.961 14.207 123.052 14.2984 123.165 14.2984H141.931H141.954C142.012 14.2984 142.158 14.3381 142.158 14.5095C142.149 16.3986 142.158 20.115 142.158 20.9159C142.158 22.8087 141.995 23.4694 140.717 24.0973C140.58 24.1644 140.464 24.3023 140.563 24.4471C140.663 24.5919 142.393 26.8619 142.393 26.8619C142.393 26.8619 142.568 27.1279 142.96 26.9168C145.415 25.6694 145.95 24.1834 146.081 21.3807C146.117 20.605 146.093 16.4832 146.084 14.5065C146.084 14.4371 146.13 14.2984 146.295 14.2984H146.308H147.599C147.712 14.2984 147.803 14.207 147.803 14.0942V11.4165C147.803 11.3037 147.712 11.2122 147.599 11.2122Z" fill="#00DC5A"/>
<path d="M173.322 23.7141H170.422H156.911C156.655 23.7141 156.424 23.535 156.386 23.2836C156.352 23.055 156.469 22.85 156.652 22.7532L169.569 16.3019L171.418 15.3654C171.654 15.2389 172.057 14.9973 172.396 14.6712C172.666 14.4121 172.91 14.0814 173.076 13.6783C173.221 13.3064 173.3 12.8987 173.3 12.4758C173.3 10.8351 172.022 9.50008 170.392 9.44217C170.357 9.44141 170.324 9.43988 170.292 9.43988C170.289 9.43988 170.287 9.43988 170.283 9.43988C170.283 9.43988 170.282 9.43988 170.28 9.43988C170.28 9.43988 170.278 9.43988 170.277 9.43988H152.199C152.086 9.43988 151.996 9.53057 151.995 9.64258L151.993 9.64411V12.4918C151.993 12.603 152.083 12.693 152.194 12.6953V12.696H168.14C168.29 12.696 168.43 12.8187 168.431 12.9688C168.431 13.0763 168.368 13.1601 168.277 13.2134L168.157 13.2782C168.157 13.2782 168.135 13.2912 168.093 13.3125L167.828 13.4542C165.831 14.518 154.354 20.093 153.275 20.852C153.149 20.9289 153.031 21.0089 152.917 21.0905C152.69 21.2444 152.483 21.4265 152.302 21.6307C152.302 21.6307 152.3 21.6323 152.3 21.6338C152.263 21.6749 152.228 21.7169 152.194 21.7603C152.19 21.7649 152.186 21.7694 152.183 21.774C152.151 21.8144 152.121 21.8548 152.091 21.8967C152.086 21.9028 152.082 21.9089 152.078 21.915C152.048 21.9561 152.021 21.9988 151.993 22.0407C151.99 22.0468 151.986 22.0529 151.982 22.059C151.953 22.1047 151.926 22.1512 151.899 22.1985C151.897 22.2015 151.896 22.2038 151.894 22.2068C151.838 22.3089 151.787 22.4141 151.741 22.5231C151.74 22.5246 151.74 22.5261 151.739 22.5276C151.718 22.5779 151.698 22.6282 151.68 22.6793C151.676 22.6938 151.671 22.7075 151.666 22.722C151.653 22.7608 151.64 22.8005 151.628 22.8401C151.622 22.8591 151.617 22.8774 151.612 22.8965C151.602 22.9323 151.592 22.9681 151.583 23.0047C151.578 23.026 151.574 23.0473 151.568 23.0679C151.561 23.103 151.554 23.1388 151.547 23.1738C151.543 23.1959 151.538 23.218 151.535 23.2401C151.529 23.276 151.524 23.3118 151.519 23.3483C151.516 23.3704 151.513 23.3925 151.511 23.4146C151.507 23.4535 151.504 23.4924 151.501 23.5312C151.5 23.551 151.497 23.5709 151.497 23.5899C151.493 23.6471 151.492 23.705 151.491 23.7629C151.491 23.7644 151.491 23.7659 151.491 23.7675C151.491 23.8223 151.493 23.8772 151.496 23.9321C151.497 23.9473 151.498 23.9618 151.499 23.9778C151.501 24.0159 151.504 24.0547 151.508 24.0936C151.51 24.1134 151.513 24.1325 151.515 24.1523C151.519 24.1858 151.523 24.2193 151.528 24.2521C151.531 24.2742 151.535 24.2955 151.539 24.3169C151.545 24.3481 151.549 24.3786 151.555 24.4091C151.56 24.4312 151.565 24.4533 151.57 24.4754C151.577 24.5051 151.583 24.5341 151.591 24.563C151.596 24.5859 151.603 24.608 151.609 24.6308C151.617 24.6583 151.625 24.6865 151.633 24.7139C151.64 24.7368 151.647 24.7589 151.655 24.7817C151.664 24.8084 151.673 24.8358 151.682 24.8625C151.691 24.8846 151.699 24.9067 151.708 24.9288C151.718 24.9555 151.728 24.9814 151.739 25.0073C151.748 25.0294 151.758 25.0515 151.768 25.0728C151.779 25.098 151.79 25.1231 151.802 25.1482C151.812 25.1703 151.823 25.1917 151.834 25.213C151.846 25.2374 151.859 25.2618 151.871 25.2862C151.883 25.3075 151.895 25.3281 151.907 25.3494C151.92 25.373 151.933 25.3967 151.947 25.4195C151.96 25.4409 151.973 25.4614 151.986 25.482C151.999 25.5041 152.014 25.527 152.029 25.5498C152.042 25.5696 152.057 25.5895 152.07 25.61C152.086 25.6314 152.101 25.6535 152.117 25.6748C152.131 25.6946 152.146 25.7144 152.161 25.7335C152.177 25.7541 152.194 25.7754 152.21 25.796C152.226 25.815 152.241 25.8341 152.257 25.8524C152.275 25.8729 152.291 25.8927 152.309 25.9118C152.326 25.9308 152.342 25.9491 152.359 25.9674C152.377 25.9865 152.395 26.0048 152.413 26.0238C152.431 26.0413 152.448 26.0589 152.466 26.0764C152.485 26.0947 152.503 26.1122 152.522 26.1305C152.541 26.1473 152.56 26.164 152.578 26.1808C152.598 26.1983 152.617 26.2151 152.637 26.2318C152.656 26.2478 152.675 26.2639 152.694 26.2799C152.715 26.2959 152.736 26.3119 152.756 26.3279C152.776 26.3431 152.796 26.3583 152.816 26.3728C152.837 26.3881 152.858 26.4033 152.88 26.4178C152.9 26.4323 152.921 26.4467 152.942 26.4605C152.963 26.4749 152.985 26.4886 153.007 26.5024C153.028 26.5161 153.05 26.5298 153.072 26.5428C153.094 26.5557 153.117 26.5679 153.139 26.5809C153.162 26.5938 153.184 26.606 153.207 26.6182C153.229 26.6304 153.252 26.6418 153.275 26.6532C153.298 26.6647 153.321 26.6769 153.344 26.6875C153.367 26.699 153.391 26.7089 153.415 26.7195C153.438 26.7302 153.462 26.7409 153.485 26.7508C153.51 26.7607 153.533 26.7698 153.558 26.779C153.582 26.7881 153.607 26.798 153.631 26.8072C153.655 26.8156 153.68 26.8232 153.704 26.8316C153.729 26.8399 153.754 26.8483 153.78 26.8559C153.804 26.8636 153.829 26.8704 153.854 26.8773C153.88 26.8849 153.905 26.8925 153.931 26.8986C153.956 26.9047 153.982 26.9108 154.007 26.9161C154.033 26.9222 154.059 26.9283 154.085 26.9337C154.111 26.939 154.138 26.9428 154.164 26.9474C154.19 26.9527 154.216 26.9573 154.242 26.9619C154.269 26.9657 154.295 26.968 154.322 26.9718C154.349 26.9748 154.375 26.9786 154.402 26.9817C154.455 26.987 154.508 26.9908 154.561 26.9939C154.617 26.9969 154.673 26.9984 154.731 26.9984H173.057H173.322C173.434 26.9984 173.527 26.907 173.527 26.7942V24.182V23.9183C173.527 23.8056 173.434 23.7141 173.322 23.7141Z" fill="#00DC5A"/>
<path d="M43.2108 26.7578C43.2108 26.8813 43.3198 26.9818 43.4547 26.9818H49.259C49.3931 26.9818 49.5021 26.8813 49.5021 26.7578V0.82308C49.5021 0.699631 49.3931 0.599045 49.259 0.599045H43.4547C43.3198 0.599045 43.2108 0.699631 43.2108 0.82308V26.7578Z" fill="#00DC5A"/>
<path d="M0.540039 26.7578C0.540039 26.8813 0.649008 26.9818 0.783887 26.9818H6.58822C6.72234 26.9818 6.83131 26.8813 6.83131 26.7578V10.4307C6.83131 10.3072 6.72234 10.2074 6.58822 10.2074H0.783887C0.649008 10.2074 0.540039 10.3072 0.540039 10.4307V26.7578Z" fill="#00DC5A"/>
<path d="M25.8804 21.2972C21.6755 22.0554 17.6238 19.1925 16.8481 14.9153C16.0723 10.6373 18.8621 6.53985 23.067 5.78164C27.271 5.02343 31.3227 7.88635 32.0985 12.1636C32.8742 16.4416 30.0852 20.539 25.8804 21.2972ZM39.3804 22.5248L36.5091 20.2258C36.4496 20.1786 36.4115 20.1138 36.3963 20.0437C36.3818 19.9736 36.3902 19.8989 36.426 19.8318C37.7992 17.2585 38.3478 14.2256 37.7877 11.1379C36.4611 3.824 29.4253 -1.02857 22.0725 0.297352C14.719 1.62403 9.83365 8.6278 11.1596 15.9409C12.4855 23.2549 19.522 28.1082 26.8748 26.7815C28.9193 26.4127 30.7718 25.6042 32.3545 24.4733C32.4711 24.3895 32.6288 24.3918 32.7409 24.4817L35.821 26.9476C35.9254 27.0314 36.08 27.0124 36.1662 26.9049L39.4131 22.87C39.5 22.7626 39.4848 22.6079 39.3804 22.5248Z" fill="#00DC5A"/>
<path d="M86.749 0.599041H80.9447C80.8105 0.599041 80.7008 0.699627 80.7008 0.823074V26.7578C80.7008 26.8813 80.8105 26.9818 80.9447 26.9818H86.749C86.8839 26.9818 86.9928 26.8813 86.9928 26.7578V0.823074C86.9928 0.699627 86.8839 0.599041 86.749 0.599041Z" fill="#00DC5A"/>
<path d="M3.68591 0.0819511C1.65054 0.0819511 0 1.72792 0 3.75796C0 5.78799 1.65054 7.43396 3.68591 7.43396C5.72128 7.43396 7.37182 5.78799 7.37182 3.75796C7.37182 1.72792 5.72128 0.0819511 3.68591 0.0819511Z" fill="#00DC5A"/>
<path d="M77.6283 0.599041H71.4437C71.337 0.599041 71.2387 0.653143 71.1885 0.739252L65.442 10.9313C65.442 10.9313 65.4009 11.006 65.3437 11.0075C65.2866 11.006 65.2454 10.9313 65.2454 10.9313L59.4982 0.739252C59.4479 0.653143 59.3504 0.599041 59.2437 0.599041H53.0591C52.8938 0.599041 52.7033 0.76897 52.8397 1.02273L62.032 16.4491C62.1196 16.5977 62.1661 16.7677 62.1661 16.9406V26.7128C62.1661 26.8614 62.2865 26.9818 62.4351 26.9818H65.3437H68.2516C68.401 26.9818 68.5214 26.8614 68.5214 26.7128V16.9406C68.5214 16.7677 68.5679 16.5977 68.6555 16.4491L77.8478 1.02273C77.9834 0.76897 77.7937 0.599041 77.6283 0.599041Z" fill="#00DC5A"/>
</g>
<defs>
<clipPath id="clip0_89_698">
<rect width="174.643" height="27" fill="white"/>
</clipPath>
</defs>
</svg>
