<svg width="109" height="27" viewBox="0 0 109 27" fill="none" xmlns="http://www.w3.org/2000/svg">
<path d="M26.1649 18.7423V18.6495V11.8763C26.4433 11.0412 25.7938 8.72165 24.9588 8.72165L22.1753 7.8866L18.2784 16.0515L14.2887 5.65979L10.1134 4.45361C9.92783 4.36083 9.74227 4.36082 9.5567 4.36082C8.35052 4.36082 7.42268 5.28866 7.42268 6.49485V18.9278C7.42268 20.0412 8.35052 20.9691 9.46392 20.9691C9.5567 20.9691 9.5567 20.9691 9.64948 20.9691L11.3196 20.7835V7.79381L16.1443 20.3196L19.8557 19.9485L24.4021 10.3918V17.2577V17.3505C24.4021 19.8557 22.5464 21.8969 20.134 22.268L8.4433 23.4742C8.35052 23.4742 8.25773 23.4742 8.16495 23.4742C6.12371 23.4742 4.45361 21.8041 4.45361 19.7629V19.6701V5.93814V5.84536C4.45361 4.08247 5.56701 2.50515 7.23711 2.04124C8.07217 1.76289 8.90722 1.76289 9.64948 2.04124L23.3814 6.03093C23.4742 6.03093 23.567 6.03093 23.567 6.03093C23.9381 6.03093 24.3093 5.65979 24.3093 5.28866C24.3093 5.01031 24.1237 4.73196 23.8454 4.54639L9 0.278351C8.25773 0.0927835 7.42268 0 6.68041 0C2.96907 0 0 2.96907 0 6.68041V20.8763C0 24.2165 2.78351 27 6.12371 27C6.30928 27 6.49484 27 6.68041 27L19.9485 25.6082C23.4742 25.2371 26.1649 22.268 26.1649 18.7423Z" fill="#FF5F00"/>
<path d="M84.6185 12.9897C84.2474 12.5258 83.7835 12.2474 83.2268 11.9691C82.6701 11.6907 82.0206 11.598 81.3711 11.598C80.7216 11.598 80.0721 11.6907 79.4227 11.9691C78.7732 12.2474 78.2165 12.5258 77.7526 12.9897C77.2886 13.4536 76.9175 14.0103 76.5464 14.567C76.268 15.2165 75.9897 15.866 75.8969 16.6083C75.8041 17.3505 75.8041 18.0928 75.9897 18.6495C76.1752 19.299 76.3608 19.7629 76.7319 20.2268C77.1031 20.6907 77.567 20.9691 78.1237 21.2474C78.6804 21.5258 79.3299 21.6186 79.9794 21.6186C80.6288 21.6186 81.2783 21.5258 81.9278 21.2474C82.5773 20.9691 83.134 20.6907 83.5979 20.2268C84.0618 19.7629 84.433 19.2062 84.8041 18.6495C85.0824 18 85.3608 17.3505 85.4536 16.6083C85.5464 15.866 85.5464 15.1237 85.3608 14.567C85.268 14.0103 84.9897 13.4536 84.6185 12.9897ZM83.4123 16.7011C83.3196 17.7217 82.9484 18.5567 82.3917 19.1134C81.835 19.6701 81.0928 20.2268 80.2577 20.2268C79.4227 20.2268 78.866 19.7629 78.402 19.1134C78.0309 18.5567 77.8453 17.7217 78.0309 16.7011C78.1237 15.6804 78.4948 14.8454 79.0515 14.2887C79.6082 13.732 80.4433 13.1753 81.2783 13.1753C82.1134 13.1753 82.6701 13.6392 83.0412 14.2887C83.4123 14.8454 83.5979 15.5877 83.4123 16.7011Z" fill="white"/>
<path d="M63 12.8969C62.7216 12.5258 62.3505 12.1547 61.7938 11.9691C61.2371 11.7835 60.5876 11.598 59.7525 11.598C58.8247 11.598 57.9897 11.6907 57.3402 11.7835C56.5979 11.8763 56.0412 11.9691 55.5773 12.0619L54.9278 17.165L54.3711 21.5258H56.2268H56.5051L57.5257 13.2681C57.5257 13.2681 57.5257 13.2681 57.6185 13.2681C57.8041 13.2681 57.9897 13.1753 58.1752 13.1753C58.3608 13.1753 59.0103 13.0825 59.1031 13.0825C59.567 13.0825 60.0309 13.1753 60.3092 13.2681C60.5876 13.3608 60.8659 13.5464 61.0515 13.8248C61.2371 14.1031 61.3299 14.4743 61.3299 14.8454C61.3299 15.3093 61.3299 15.7732 61.2371 16.4227L60.5876 21.5258H62.7216L63.4639 16.1444C63.5567 15.4949 63.5567 14.8454 63.4639 14.2887C63.4639 13.8248 63.2783 13.3608 63 12.8969Z" fill="white"/>
<path d="M52.6082 12.8041C52.3298 12.433 51.9587 12.1547 51.402 11.9691C50.9381 11.7835 50.2886 11.6907 49.4535 11.6907C48.804 11.6907 48.1546 11.7835 47.5979 11.8763C47.0412 11.9691 46.5772 12.0619 46.2989 12.1547V13.6392C46.5772 13.5464 47.0412 13.4536 47.4123 13.3608C47.7834 13.2681 48.1546 13.2681 48.804 13.2681C49.268 13.2681 49.7319 13.3608 50.0102 13.4536C50.2886 13.5464 50.5669 13.732 50.6597 14.0103C50.8453 14.1959 50.9381 14.4742 50.9381 14.7526C50.9381 14.8454 50.9381 14.9382 50.9381 15.1237L50.8453 15.9588C50.7525 15.9588 50.6597 15.9588 50.5669 15.866C50.4741 15.866 50.2886 15.7732 50.103 15.7732C49.9174 15.7732 49.7319 15.6804 49.5463 15.6804C49.3607 15.6804 49.1752 15.6804 48.9896 15.6804C48.4329 15.6804 48.1546 15.7732 47.5979 15.866C47.0412 15.9588 46.5772 16.1443 46.1133 16.4227C45.6494 16.701 45.2783 16.9794 44.9999 17.3505C44.7216 17.7217 44.536 18.0928 44.4432 18.6495C44.3504 19.2062 44.4432 19.5773 44.536 19.9485C44.7216 20.3196 44.9071 20.6907 45.2783 20.9691C45.6494 21.2474 46.0205 21.433 46.4845 21.5258C46.9484 21.6186 47.5051 21.7114 48.1546 21.7114C48.6185 21.7114 48.9896 21.7114 49.4535 21.6186C49.9174 21.6186 50.2886 21.5258 50.6597 21.5258C51.0308 21.5258 51.402 21.433 51.6803 21.433C51.9587 21.433 52.237 21.3402 52.4226 21.3402L53.1649 15.5876C53.2576 15.0309 53.2576 14.3815 53.1649 13.9175C53.0721 13.5464 52.8865 13.0825 52.6082 12.8041ZM48.6185 20.3196C47.8762 20.3196 47.5051 20.134 47.1339 19.9485C46.7628 19.6701 46.5772 19.3918 46.67 18.7423C46.67 18.4639 46.8556 18.1856 47.0412 18C47.2267 17.8144 47.5051 17.6289 47.7834 17.5361C48.0618 17.4433 48.3401 17.3505 48.7113 17.2577C49.0824 17.2577 49.1752 17.2577 49.4535 17.2577C49.9174 17.2577 50.2886 17.2577 50.5669 17.3505C50.6597 17.3505 50.7525 17.3505 50.8453 17.4433L50.4741 20.3196C50.2886 20.3196 50.1958 20.3196 50.0102 20.3196C49.4535 20.2268 49.0824 20.3196 48.6185 20.3196Z" fill="white"/>
<path d="M85.6392 11.0413H90L88.6082 21.5258H90.7423L92.134 11.0413H96.2165L96.4948 9.18561H85.8247L85.6392 11.0413Z" fill="white"/>
<path d="M72.6494 11.6907L72.5567 12.3402C72.5567 12.3402 72.5567 12.3402 72.4639 12.3402C71.9072 12.0619 71.2577 11.9691 70.6082 11.9691C69.9587 11.9691 69.3092 12.0619 68.6597 12.3402C68.0103 12.6186 67.5463 12.8969 66.9896 13.3608C66.5257 13.8248 66.1546 14.3815 65.7835 14.9382C65.5051 15.5876 65.2268 15.9588 65.134 16.7938C65.0412 17.5361 65.0412 18.0928 65.2268 18.7423C65.4123 19.3918 65.5979 19.8557 65.969 20.3196C66.3402 20.7835 66.8041 21.0619 67.3608 21.3402C67.9175 21.6186 68.4742 21.7114 69.2164 21.7114C70.1443 21.7114 71.1649 21.3402 71.1649 21.3402V21.7114V21.8969C70.9793 23.567 69.6804 24.6804 68.567 24.6804C67.1752 24.6804 66.7113 23.9382 66.3402 23.3815L64.5773 23.9382C65.0412 25.2371 66.5257 26.5361 68.567 26.5361C70.701 26.5361 73.0206 24.866 73.3917 21.3402L73.6701 18.9278L74.5979 12.0619L72.6494 11.6907ZM69.7731 20.2268C68.9381 20.3196 68.2886 19.9485 67.9175 19.299C67.4536 18.6495 67.3608 17.9072 67.4536 16.8866C67.6391 15.7732 67.9175 15.2165 68.567 14.567C69.1237 13.9175 69.9587 13.6392 70.8866 13.6392C71.7216 13.6392 71.9072 13.9175 72.3711 14.1959L71.7216 19.3918C71.1649 19.8557 70.6082 20.134 69.7731 20.2268Z" fill="white"/>
<path d="M36.6494 15.7732L34.4226 9.27832H31.3608L29.7834 21.6185H31.9175L33.1237 12.0618L35.3505 18.5567H37.2989L41.2886 11.7835L40.0824 21.6185H42.2164L43.7938 9.27832H40.6391L36.6494 15.7732Z" fill="white"/>
<path d="M106.423 9.18561L102.062 19.1134L100.206 9.18561H98.0721L100.392 21.5258H103.175L108.557 9.18561H106.423Z" fill="white"/>
</svg>
