<svg width="100" height="27" viewBox="0 0 100 27" fill="none" xmlns="http://www.w3.org/2000/svg">
<path d="M10.3053 0C11.7481 0 12.9847 0 14.4275 0C14.4275 8.45038 14.4275 16.6947 14.4275 25.145C12.7786 25.3511 11.1298 25.5572 9.68702 25.7634C7.62595 20.6107 4.12214 11.7481 4.12214 11.7481C4.12214 11.7481 4.12214 20.6107 4.12214 26.3817C4.94656 26.3817 3.70992 26.3817 0 27C0 18.1374 0 9.0687 0 0.206108C1.64885 0.206108 4.12214 0.206108 4.12214 0.206108L10.3053 15.2519C10.3053 15.2519 10.3053 5.77099 10.3053 0ZM30.2977 4.12214C30.2977 2.8855 30.2977 1.23664 30.2977 0C26.3817 0 22.4656 0 18.5496 0C18.5496 8.24427 18.5496 16.4885 18.5496 24.7328C22.4656 24.3206 26.3817 23.9084 30.2977 23.4962C30.2977 22.2595 30.2977 20.6107 30.2977 19.374C27.8244 19.5802 25.3511 19.5801 22.6718 20.1985C22.6718 17.9313 22.6718 16.6947 22.6718 14.4275C24.5267 14.4275 27 14.4275 28.855 14.4275C28.855 13.1908 28.855 11.542 28.855 10.3053C27 10.3053 24.5267 10.3053 22.6718 10.3053C22.6718 8.03817 22.6718 6.38931 22.6718 4.12214C23.9084 4.32824 29.2672 4.32824 30.2977 4.12214ZM32.9771 4.12214C33.1832 4.12214 36.8931 4.12214 37.0992 4.12214C37.0992 10.7176 37.0992 16.4886 37.0992 23.084C38.542 23.084 39.7786 23.084 41.2214 22.8779C41.2214 16.2824 41.2214 10.7176 41.2214 4.12214C42.6641 4.12214 43.9008 4.12214 45.3435 4.12214C45.3435 2.8855 45.3435 1.23664 45.3435 0C41.0153 0 37.3053 0 32.9771 0C32.9771 1.23664 32.9771 2.8855 32.9771 4.12214ZM58.9466 0C55.0305 0 51.3206 0 47.4046 0C47.4046 7.83206 47.4046 14.8397 47.4046 22.6718C47.8168 22.6718 48.229 22.6718 48.6412 22.6718C49.4656 22.6718 50.4962 22.6718 51.5267 22.6718C51.5267 19.374 51.5267 17.7252 51.5267 14.4275C51.7328 14.4275 56.4733 14.4275 57.0916 14.4275C57.0916 13.1908 57.0916 11.542 57.0916 10.3053C56.4733 10.3053 51.7328 10.3053 51.5267 10.3053C51.5267 8.24427 51.5267 6.18321 51.5267 4.12214C51.9389 4.12214 57.916 4.12214 58.9466 4.12214C58.9466 3.0916 58.9466 1.23664 58.9466 0ZM65.9542 19.5802C65.9542 12.7786 65.9542 6.80153 65.9542 0C64.5114 0 63.2748 0 61.8321 0C61.8321 7.83206 61.8321 15.2519 61.8321 23.084C65.542 23.2901 69.2519 23.4962 72.9618 23.9084C72.9618 22.6718 72.9618 21.229 72.9618 19.9924C70.6947 19.7863 68.2214 19.5802 65.9542 19.5802ZM76.2595 24.1145C77.7023 24.3206 78.9389 24.3206 80.3817 24.5267C80.3817 16.2824 80.3817 8.24427 80.3817 0C78.9389 0 77.7023 0 76.2595 0C76.2595 8.24427 76.2595 16.0763 76.2595 24.1145ZM93.5725 12.7786C95.4275 8.65649 97.0763 4.53435 98.9313 0.206108C97.4885 0.206108 95.8397 0.206108 94.3969 0.206108C93.3664 2.8855 92.542 4.74046 91.5114 7.21374C90.4809 4.53435 89.8626 2.67939 88.8321 0.206108C87.3893 0.206108 85.7405 0.206108 84.2977 0.206108C85.9466 4.32824 87.3893 8.45038 89.2443 12.7786C87.3893 16.9008 85.7405 21.0229 83.8855 25.145C85.3282 25.3511 86.771 25.5572 88.2137 25.7634C89.2443 23.084 90.2748 21.229 91.3053 18.5496C92.3359 21.4351 93.3664 23.4962 94.3969 26.3817C95.8397 26.5878 97.6946 26.7939 99.1374 27C97.0763 22.0534 95.2214 17.1069 93.5725 12.7786Z" fill="#F44336"/>
</svg>
