<svg width="225" height="27" viewBox="0 0 225 27" fill="none" xmlns="http://www.w3.org/2000/svg">
<path d="M13.3853 26.6176C20.5665 26.6176 26.3881 20.7961 26.3881 13.6148C26.3881 6.43353 20.5665 0.611938 13.3853 0.611938C6.20401 0.611938 0.382446 6.43353 0.382446 13.6148C0.382446 20.7961 6.20401 26.6176 13.3853 26.6176Z" fill="#0C9BFF"/>
<path d="M11.7026 20.6517V16.2918H13.6147L16.8272 20.6517H20.1162L16.2153 15.4506C18.357 13.9208 18.8924 10.9378 17.3626 8.71967C16.4448 7.41939 14.9915 6.65448 13.3853 6.65448H9.02551V20.6517H11.7026ZM11.7026 9.33149H13.3853C14.6091 9.33149 15.5269 10.3258 15.5269 11.4732C15.5269 12.6969 14.5326 13.6148 13.3853 13.6148H11.7026V9.33149Z" fill="white"/>
<path d="M114.195 20.1161C113.737 21.1105 112.589 21.6459 111.518 21.187C110.677 20.8045 110.218 19.9631 110.295 19.1218V11.0141H116.872V6.57787H110.295V1.91217H105.935V6.57787H102.799V11.0141H105.935V19.1218C105.858 22.7167 108.688 25.6232 112.283 25.6997C115.113 25.7763 117.714 23.9405 118.555 21.2634L114.195 20.1161Z" fill="white"/>
<path d="M59.2776 6.57789V7.41926C57.9774 6.57788 56.4476 6.11896 54.9179 6.11896C50.0992 6.11896 46.1218 10.5552 46.1218 15.9093C46.1218 21.2634 50.0992 25.7762 54.9179 25.7762C56.4476 25.7762 57.9774 25.3173 59.2776 24.4759V25.3173H63.7139V6.57789H59.2776ZM54.9179 21.3399C52.5468 21.3399 50.5581 18.8924 50.5581 15.9859C50.5581 13.0793 52.4703 10.6318 54.9179 10.6318C57.3655 10.6318 59.2776 13.0028 59.2776 15.9093C59.2776 18.8158 57.3655 21.3399 54.9179 21.3399Z" fill="white"/>
<path d="M96.7563 6.57788V17.592C96.6799 19.6572 94.9206 21.2634 92.8555 21.187C90.9433 21.1104 89.3371 19.5807 89.2606 17.592V6.57788H84.8243V17.592C84.8243 22.1048 88.4957 25.7762 93.0085 25.7762C94.3088 25.7762 95.609 25.4702 96.7563 24.8583V25.3173H101.193V6.57788H96.7563Z" fill="white"/>
<path d="M146.473 6.11896C145.173 6.11896 143.872 6.42494 142.725 7.03682V6.57789H138.289V25.3173H142.725V14.3031C142.649 12.238 144.255 10.4787 146.32 10.4022C148.385 10.3256 150.144 11.932 150.221 13.9972C150.221 14.0738 150.221 14.2267 150.221 14.3031V25.3173H154.657V14.3031C154.657 9.79036 150.986 6.11896 146.473 6.11896Z" fill="white"/>
<path d="M136.53 15.9094C136.53 10.4788 132.629 6.04254 127.734 6.04254C122.838 6.04254 118.938 10.4788 118.938 15.9094C118.938 21.7224 123.909 25.7763 128.346 25.7763C131.482 25.7763 134.388 24.1701 136.071 21.5695L132.17 19.3513C128.881 23.3287 124.292 20.6516 123.833 17.2097H136.377C136.453 16.8272 136.53 16.3683 136.53 15.9094ZM131.482 13.3089H123.986C124.827 9.63746 130.64 8.87257 131.482 13.3089Z" fill="white"/>
<path d="M70.8271 17.3626L78.7818 25.3173H85.0537L75.1104 15.3739L83.9064 6.57791H77.6345L70.8271 13.3853V0.382446H66.3909V25.3173H70.8271V17.3626Z" fill="white"/>
<path d="M33.4249 25.3173V18.051H36.5609L41.9915 25.3173H47.575L40.9971 16.5212C44.592 13.9206 45.5099 8.87247 42.9093 5.27757C41.4561 3.21243 38.932 1.91217 36.3314 1.91217H28.9886V25.3173H33.4249ZM33.4249 6.34841H36.3314C38.3201 6.34841 40.0028 7.95468 40.0028 10.0199C40.0028 12.085 38.3966 13.6912 36.3314 13.6912H33.4249V6.34841Z" fill="white"/>
<path d="M166.666 1.91217L171.255 17.2096L175.768 1.91217H182.499L173.855 25.3173H168.501L159.935 1.91217H166.666Z" fill="#0C9BFF"/>
<path d="M184.717 25.3173V1.91217H191.141V25.3173H184.717Z" fill="#0C9BFF"/>
<path d="M194.813 25.3173V1.91217H201.238V10.7846L208.351 1.91217H215.618L207.127 12.3909L216.229 25.3173H208.81L202.997 16.6742L201.238 18.5099V25.2408L194.813 25.3173Z" fill="#0C9BFF"/>
<path d="M217.53 25.3173V1.91217H223.955V25.3173H217.53Z" fill="#0C9BFF"/>
</svg>
