<svg width="104" height="27" viewBox="0 0 104 27" fill="none" xmlns="http://www.w3.org/2000/svg">
<g clip-path="url(#clip0_89_730)">
<path d="M22.028 11.3226C19.6846 9.42072 16.9172 7.94395 14.0159 6.5343C11.2931 5.16941 8.41413 4.05064 5.46819 3.15563C5.46819 3.15563 5.46819 3.15563 5.46819 3.178C5.37892 3.15563 5.31196 3.13325 5.22269 3.0885C3.32568 2.50674 1.65185 3.178 0.893048 5.23653C-0.044298 7.8097 0.000337508 10.6961 0.000337508 13.5154C0.000337508 16.3347 -0.0219802 19.1764 0.87073 21.7495C1.69649 24.1213 3.30336 24.4793 5.20037 23.8976C5.24501 23.8752 5.3566 23.8528 5.44587 23.8081C5.44587 23.8304 5.44587 23.8528 5.44587 23.8752C8.43645 22.9578 11.3601 21.7943 14.1721 20.3846C17.0065 18.975 19.7292 17.4758 22.0503 15.6187C23.7911 14.2314 23.6125 12.6204 22.028 11.3226Z" fill="url(#paint0_linear_89_730)"/>
<path d="M28.4331 16.1781C30.3525 14.1643 30.1293 12.3071 28.4108 10.7185C25.8889 8.34671 22.8983 6.42243 19.7739 4.61003C16.7386 2.84238 13.5249 1.38798 10.2219 0.202087C8.34717 -0.446798 6.31625 0.515341 5.64672 2.39487C5.57977 2.57387 5.53513 2.75287 5.51281 2.93188C4.21839 9.91298 4.21839 17.0731 5.4905 24.0542C5.84758 26.0008 7.72227 27.2986 9.66392 26.9406C9.84246 26.8959 10.0433 26.8511 10.2219 26.784C13.5918 25.5757 16.8279 24.0542 19.9078 22.2418C22.9876 20.4741 26.0451 18.6617 28.4331 16.1781Z" fill="url(#paint1_linear_89_730)"/>
<path d="M5.46822 3.15564C4.24074 10.0025 4.21843 17.0283 5.4459 23.8752C8.43648 22.9578 11.3601 21.7943 14.1721 20.3846C17.0065 18.975 19.7293 17.4759 22.0503 15.6187C23.7911 14.2314 23.6126 12.6204 22.028 11.3226C19.6846 9.42073 16.9172 7.94396 14.0159 6.53431C11.2932 5.16942 8.41416 4.05065 5.46822 3.15564Z" fill="url(#paint2_linear_89_730)"/>
<path d="M17.7206 13.0008C17.7206 13.0008 16.7833 12.1282 13.6811 10.5395C10.6236 8.97323 9.35148 8.70473 9.35148 8.70473C8.90513 8.57047 8.63732 8.70473 8.52573 9.21936C8.52573 9.21936 8.2356 9.64449 8.2356 13.493C8.2356 17.3416 8.52573 17.8115 8.52573 17.8115C8.615 18.2814 8.83818 18.438 9.35148 18.3261C9.35148 18.3261 10.2219 18.1919 13.6811 16.4466C17.1404 14.7013 17.7206 14.0301 17.7206 14.0301C18.1 13.6497 18.1893 13.4035 17.7206 13.0008Z" fill="url(#paint3_linear_89_730)"/>
<path d="M37.5317 5.29993H40.0308C40.4226 5.29993 40.7514 5.59666 40.7934 5.988L41.8968 16.2607H41.9447L46.8317 5.74464C46.9577 5.47334 47.2288 5.29993 47.5266 5.29993H49.8783C50.2507 5.29993 50.5692 5.56853 50.6336 5.93713L52.4923 16.5503H52.5403L56.7695 5.78761C56.8851 5.49338 57.1679 5.29993 57.4828 5.29993H59.5902C60.1419 5.29993 60.5131 5.86757 60.2943 6.37645L53.6052 21.9279C53.4839 22.2102 53.2072 22.3928 52.9011 22.3928H50.7071C50.3358 22.3928 50.0177 22.1256 49.9521 21.7583L47.9513 10.5629H47.9034L42.7263 21.9426C42.6015 22.2169 42.3288 22.3928 42.0287 22.3928H39.958C39.5802 22.3928 39.2588 22.1166 39.2001 21.7416L36.7736 6.19013C36.701 5.72248 37.0607 5.29993 37.5317 5.29993Z" fill="white"/>
<path d="M69.4369 19.8151C69.813 20.1248 69.8068 20.6978 69.4339 21.0111C68.915 21.447 68.3338 21.8031 67.6902 22.0791C66.7533 22.4812 65.8121 22.6828 64.8671 22.6828C63.97 22.6828 63.1452 22.5379 62.3924 22.2482C61.6393 21.9585 61.0107 21.5443 60.5064 21.0049C60.0019 20.4658 59.6332 19.8182 59.4011 19.0613C59.1688 18.3051 59.1166 17.46 59.2451 16.5264C59.3729 15.593 59.6572 14.7482 60.098 13.9915C60.5382 13.2352 61.0869 12.5876 61.7439 12.0481C62.4004 11.5089 63.1452 11.0945 63.9782 10.8047C64.8108 10.5151 65.6758 10.3702 66.573 10.3702C67.4057 10.3702 68.1428 10.5151 68.7835 10.8047C69.4239 11.0945 69.9445 11.5089 70.345 12.0481C71.4457 13.5294 71.4524 15.5456 71.1186 17.2839C71.1186 17.2842 71.1185 17.2846 71.1185 17.285C71.0758 17.5035 70.8849 17.6611 70.6634 17.6611C69.9846 17.6611 68.5529 17.6613 67.732 17.6613C66.5834 17.6613 65.4348 17.6613 64.2862 17.6613C63.7509 17.6613 63.2158 17.6613 62.6805 17.6613C62.7285 18.3536 62.9648 18.9047 63.3893 19.3151C63.8134 19.7255 64.3782 19.9307 65.0831 19.9307C65.6754 19.9307 66.192 19.798 66.6328 19.5325C66.898 19.3726 67.1502 19.1848 67.3893 18.9694C67.6697 18.7168 68.0919 18.7087 68.3835 18.9484L69.4369 19.8151ZM67.7744 15.1982C67.8704 14.5868 67.7422 14.0635 67.3902 13.629C67.0376 13.1943 66.5329 12.9772 65.8764 12.9772C65.4758 12.9772 65.1155 13.0415 64.7952 13.1703C64.4747 13.2993 64.1946 13.4641 63.9544 13.6651C63.7141 13.8666 63.5138 14.0997 63.3539 14.3653C63.1935 14.6308 63.0814 14.9084 63.0175 15.1981L67.7744 15.1982Z" fill="white"/>
<path d="M77.291 8.63162H73.3174C72.8522 8.63162 72.4941 8.21889 72.5575 7.75567L72.8027 5.96545C72.8549 5.58394 73.1793 5.29993 73.5626 5.29993H85.469C85.9342 5.29993 86.2922 5.71265 86.2289 6.17586L85.9837 7.96608C85.9313 8.3476 85.607 8.63162 85.2237 8.63162H81.039L79.2096 21.7292C79.1565 22.1098 78.8324 22.3928 78.4501 22.3928H76.251C75.7851 22.3928 75.4267 21.9788 75.4915 21.515L77.291 8.63162Z" fill="white"/>
<path d="M87.9403 5.29993H90.6188C90.9744 5.29993 91.2831 5.54541 91.3651 5.89281L93.8681 16.5019H93.9162L99.5393 5.71304C99.6716 5.45908 99.9333 5.29993 100.219 5.29993H102.467C103.051 5.29993 103.421 5.92962 103.139 6.44331L94.5914 21.9948C94.4564 22.2404 94.1993 22.3928 93.9199 22.3928H91.9625C91.613 22.3928 91.308 22.1557 91.2202 21.816L87.1979 6.2645C87.0717 5.77643 87.4383 5.29993 87.9403 5.29993Z" fill="white"/>
</g>
<defs>
<linearGradient id="paint0_linear_89_730" x1="11.644" y1="2.88829" x2="11.644" y2="24.1428" gradientUnits="userSpaceOnUse">
<stop stop-color="#F9B93B"/>
<stop offset="1" stop-color="#FA7535"/>
</linearGradient>
<linearGradient id="paint1_linear_89_730" x1="17.1638" y1="0.000710999" x2="17.1638" y2="27.0007" gradientUnits="userSpaceOnUse">
<stop stop-color="#53C4FE"/>
<stop offset="1" stop-color="#0D84F4"/>
</linearGradient>
<linearGradient id="paint2_linear_89_730" x1="13.9122" y1="3.15636" x2="13.9122" y2="23.8759" gradientUnits="userSpaceOnUse">
<stop stop-color="#AEF922"/>
<stop offset="1" stop-color="#62BB0D"/>
</linearGradient>
<linearGradient id="paint3_linear_89_730" x1="13.1379" y1="8.6567" x2="13.1379" y2="18.3427" gradientUnits="userSpaceOnUse">
<stop stop-color="white"/>
<stop offset="0.6" stop-color="white"/>
<stop offset="1" stop-color="#E5F6D2"/>
</linearGradient>
<clipPath id="clip0_89_730">
<rect width="103.235" height="27" fill="white"/>
</clipPath>
</defs>
</svg>
