<svg width="118" height="27" viewBox="0 0 118 27" fill="none" xmlns="http://www.w3.org/2000/svg">
<path d="M51.543 1.15622C48.8431 1.1743 48.8249 3.65686 48.8249 3.65686L48.8793 15.1453C48.8793 15.2359 48.8249 25.9814 59.8422 25.9633C70.8233 25.927 70.8595 15.2359 70.8595 15.2359L70.9139 3.67498C70.9139 3.67498 70.9139 1.17434 68.1596 1.17434C65.4415 1.15627 65.4415 3.63874 65.4415 3.63874L65.4052 15.2178C65.4777 15.2903 65.4958 20.5996 59.8422 20.5633C54.2067 20.5996 54.2249 15.0909 54.2249 15.0909L54.2792 3.67498C54.2792 3.67498 54.243 1.17434 51.543 1.15622ZM36.3036 1.19249C36.2855 1.19249 36.2674 1.19249 36.2311 1.19249C35.2526 1.21057 34.2741 1.33746 33.3318 1.60927C31.4835 2.15289 29.7077 3.07703 28.4031 4.49044C26.0293 6.66491 25.0507 9.94472 25.1232 13.0615C25.0326 15.6346 25.3225 18.3708 26.7722 20.5996C28.5661 23.6982 32.0272 25.6371 35.5969 25.9633C35.8144 25.9814 36.0318 25.9814 36.2311 25.9814C36.2674 25.9814 36.2855 25.9814 36.3036 25.9814C36.3217 25.9814 36.3399 25.9814 36.358 25.9814C36.5754 25.9814 36.7929 25.9814 37.0103 25.9633C40.5801 25.6371 44.0411 23.6982 45.835 20.5996C47.2847 18.3708 47.5565 15.6346 47.484 13.0615C47.5565 9.94472 46.5598 6.66491 44.2042 4.49044C42.8995 3.07703 41.1237 2.15289 39.2754 1.60927C38.3331 1.33746 37.3546 1.21061 36.358 1.19249C36.3399 1.19249 36.3217 1.19249 36.3036 1.19249ZM4.37521 1.19249C3.23361 1.19249 2.09202 1.91731 1.67524 3.02267C1.25848 4.10991 1.69333 5.37834 2.52691 6.17564C5.15439 8.85749 7.8906 11.4668 10.4818 14.1849L10.5181 23.1365C10.5181 23.1365 10.4818 25.9452 13.3449 25.9995C16.1536 25.9633 16.1898 23.1546 16.1898 23.1546L16.2442 13.9494L24.2897 5.94008C25.1776 5.19714 25.2138 3.91058 24.8877 2.89582C24.2716 1.21061 21.8253 0.612634 20.5206 1.88108C20.4844 1.93543 13.3992 8.96621 13.3992 8.96621L5.84295 1.69987C5.38994 1.35558 4.88258 1.19249 4.37521 1.19249ZM36.3036 6.70114C36.811 6.70114 37.3184 6.77368 37.8076 6.9367C39.2935 7.38972 40.5982 8.45883 41.2687 9.85412C42.066 11.5031 41.7398 15.091 41.7579 15.1272C41.8123 17.2654 40.3083 19.1862 38.3694 20.0379C37.717 20.3097 37.0103 20.4365 36.3036 20.4365C35.5969 20.4365 34.8902 20.3097 34.2198 20.0379C32.299 19.1862 30.795 17.2654 30.8312 15.1272C30.8675 15.0909 30.5413 11.5031 31.3386 9.85412C31.9909 8.45883 33.2956 7.38972 34.7815 6.9367C35.2889 6.77363 35.7963 6.70114 36.3036 6.70114Z" fill="#FD517E"/>
<path d="M90.2848 1.19246C89.7049 1.21054 89.1251 1.42802 88.6902 1.89916C85.3741 4.99777 82.2211 8.27759 78.9775 11.4306C78.5426 11.8111 78.289 12.3366 78.0534 12.844L78.0353 3.85618C78.0353 3.85618 78.0715 1.19246 75.136 1.21057C72.2186 1.1925 72.2367 3.8743 72.2367 3.8743L72.2548 23.5713C72.2548 23.5713 72.2911 25.9995 75.136 25.9633C77.9084 25.9813 77.999 23.5895 77.999 23.5895C77.999 23.5895 78.1259 14.5292 78.0715 14.5292C78.4883 15.254 79.0863 15.852 79.7205 16.4137C82.1849 18.8419 84.613 21.3063 87.0774 23.7163C87.7841 24.4049 88.4184 25.2022 89.2881 25.6914C91.0458 26.7243 93.5646 24.9485 93.2022 22.9552C93.2022 21.7049 92.1149 20.9257 91.3176 20.1284C89.2157 18.0264 87.0593 15.9426 84.9573 13.8044C84.9573 13.6775 84.9573 13.4238 84.9573 13.297C87.3492 10.9413 89.7411 8.58565 92.1149 6.21185C92.7673 5.65011 93.2928 4.90717 93.2203 4.00115C93.3834 2.38841 91.7888 1.15621 90.2848 1.19246ZM96.9531 1.24681C94.2532 1.26489 94.2351 3.74744 94.2351 3.74744L94.2893 15.1996C94.2893 15.2902 94.2351 25.9995 105.27 25.9995C116.233 25.9632 116.27 15.2902 116.27 15.2902L116.342 3.74744C116.342 3.74744 116.342 1.26492 113.57 1.26492C110.852 1.24684 110.852 3.72932 110.852 3.72932L110.833 15.2721C110.888 15.3445 110.906 20.6358 105.252 20.5996C99.6168 20.6358 99.6531 15.1634 99.6531 15.1634L99.6893 3.74744C99.6893 3.74744 99.6712 1.26492 96.9531 1.24681Z" fill="#3FAEFB"/>
</svg>
