<svg width="32" height="32" viewBox="0 0 32 32" fill="none" xmlns="http://www.w3.org/2000/svg">
<path d="M1.33337 6H30.6667V26H1.33337V6Z" fill="#FF3D00"/>
<path d="M15.9459 15.846C11.6079 14.02 13.5306 8.39399 17.6799 8.67666C16.8406 9.10599 16.7186 9.90799 17.1979 10.65C17.7346 11.4813 17.1486 12.8187 16.4226 13.144C15.2306 13.6787 14.9913 15.104 15.9459 15.846Z" fill="#ECEFF1"/>
<path d="M15.7113 11.7834L15.4673 12.1647L15.3786 11.7207L14.9386 11.6074L15.3353 11.386L15.308 10.9347L15.6413 11.242L16.064 11.076L15.874 11.4867L16.1626 11.836L15.7113 11.7834ZM15.97 15.7987C15.4453 15.5307 15.022 14.9714 14.838 14.3034C14.6273 13.5374 14.7486 12.7134 15.1713 12.0447L15.0806 11.9874C14.642 12.682 14.516 13.536 14.7353 14.3314C14.93 15.038 15.3626 15.6074 15.922 15.8934L15.97 15.7987Z" fill="#FF3D00"/>
<path d="M15.95 15.8473C16.3533 11.1747 22.3213 11.2573 23.3333 15.274C22.664 14.612 21.8606 14.744 21.2993 15.428C20.6713 16.1933 19.2126 16.0513 18.678 15.4647C17.7993 14.5 16.364 14.714 15.95 15.8473Z" fill="#ECEFF1"/>
<path d="M19.7579 14.3693L19.3179 14.256L19.7146 14.0353L19.6866 13.5833L20.0206 13.8906L20.4433 13.7246L20.2526 14.1353L20.5419 14.4846L20.0906 14.4313L19.8466 14.8133L19.7579 14.3693ZM16.0033 15.856C16.0973 15.276 16.5006 14.7026 17.0813 14.322C17.7479 13.8853 18.5719 13.746 19.3413 13.9393L19.3679 13.8353C18.5686 13.6346 17.7139 13.7793 17.0219 14.2326C16.4073 14.6353 15.9966 15.2206 15.8966 15.8386L16.0033 15.856Z" fill="#FF3D00"/>
<path d="M15.9507 15.852C20.538 14.79 22.3033 20.4673 18.78 22.6666C19.2053 21.828 18.8307 21.108 18.0047 20.788C17.08 20.4293 16.7647 19.0046 17.1594 18.3166C17.8087 17.1866 17.1607 15.894 15.9507 15.852Z" fill="#ECEFF1"/>
<path d="M18.5386 19.0013L18.5106 18.55L18.844 18.8573L19.2666 18.6913L19.076 19.1026L19.3646 19.452L18.9133 19.3986L18.6693 19.78L18.5806 19.3366L18.1413 19.2233L18.5386 19.0013ZM15.9586 15.9046C16.5413 15.8146 17.214 16.0193 17.7573 16.4513C18.38 16.948 18.768 17.6853 18.8213 18.474L18.9286 18.4673C18.8733 17.6486 18.4706 16.884 17.8246 16.3686C17.25 15.9106 16.564 15.7033 15.9426 15.7993L15.9586 15.9046Z" fill="#FF3D00"/>
<path d="M15.9467 15.8533C18.3787 19.8693 13.502 23.296 10.312 20.6387C11.2447 20.7827 11.816 20.2053 11.8667 19.324C11.9233 18.3373 13.1867 17.598 13.966 17.76C15.246 18.0253 16.28 17.0127 15.9467 15.8533Z" fill="#ECEFF1"/>
<path d="M13.738 19.2773L14.1607 19.1113L13.97 19.522L14.2593 19.8713L13.808 19.818L13.564 20.2L13.476 19.756L13.036 19.6427L13.432 19.4213L13.4047 18.97L13.738 19.2773ZM15.8987 15.8773C16.1647 16.4013 16.1773 17.1013 15.932 17.7493C15.65 18.4927 15.066 19.088 14.3293 19.382L14.3693 19.4813C15.134 19.176 15.74 18.5587 16.0327 17.7873C16.292 17.1013 16.2787 16.388 15.9947 15.8293L15.8987 15.8773Z" fill="#FF3D00"/>
<path d="M15.9433 15.85C12.8586 19.3947 8.07932 15.8347 9.63198 11.9927C9.78265 12.92 10.5106 13.2833 11.368 13.0587C12.328 12.8073 13.424 13.776 13.5106 14.5633C13.6526 15.858 14.94 16.5247 15.9433 15.85Z" fill="#ECEFF1"/>
<path d="M11.9906 14.8166L12.2793 15.1653L11.828 15.112L11.584 15.494L11.4953 15.05L11.0553 14.9366L11.452 14.716L11.424 14.2646L11.7573 14.5713L12.18 14.406L11.9906 14.8166ZM15.906 15.812C15.488 16.226 14.8233 16.454 14.128 16.422C13.3313 16.3846 12.582 16.0153 12.0733 15.4086L11.9906 15.4773C12.5186 16.1073 13.296 16.4906 14.1226 16.5293C14.858 16.5633 15.5353 16.33 15.9813 15.8886L15.906 15.812Z" fill="#FF3D00"/>
</svg>
