<svg width="32" height="32" viewBox="0 0 32 32" fill="none" xmlns="http://www.w3.org/2000/svg">
<path d="M1.33337 16H30.6667V26H1.33337V16Z" fill="#FF3D00"/>
<path d="M1.33337 6H30.6667V16H1.33337V6Z" fill="#3F51B5"/>
<path d="M1.33337 6V26L16.6667 16.0013L1.33337 6Z" fill="#ECEFF1"/>
<path d="M3 8.66669L3.30867 9.32535L4 9.43069L3.5 9.94402L3.61867 10.6667L3 10.3254L2.38133 10.6667L2.5 9.94402L2 9.43069L2.69133 9.32535L3 8.66669ZM3.19133 21.3814L3.5 22.0407L4.19133 22.1454L3.69133 22.6587L3.81 23.3814L3.19133 23.0407L2.57267 23.3814L2.69133 22.6587L2.19133 22.1454L2.88267 22.0407L3.19133 21.3814ZM12.9753 14.8827L13.284 15.542L13.9753 15.6467L13.4753 16.16L13.594 16.8827L12.9753 16.542L12.3567 16.8827L12.4753 16.16L11.9753 15.6467L12.6667 15.542L12.9753 14.8827ZM6.66667 14C6.13623 14 5.62753 14.2107 5.25245 14.5858C4.87738 14.9609 4.66667 15.4696 4.66667 16C4.66667 16.5305 4.87738 17.0392 5.25245 17.4142C5.62753 17.7893 6.13623 18 6.66667 18C7.1971 18 7.70581 17.7893 8.08088 17.4142C8.45595 17.0392 8.66667 16.5305 8.66667 16C8.66667 15.4696 8.45595 14.9609 8.08088 14.5858C7.70581 14.2107 7.1971 14 6.66667 14Z" fill="#FFA000"/>
<path d="M7.33333 19.3333C7.33333 19.702 7.03533 20 6.66667 20C6.298 20 6 19.702 6 19.3333L6.66667 18.0013V14L6 12.6667C6 12.298 6.298 12 6.66667 12C7.03533 12 7.33333 12.298 7.33333 12.6667L6.66667 14V18.0013L7.33333 19.3333Z" fill="#FFA000"/>
<path d="M9.99996 15.3333C10.3686 15.3333 10.6666 15.6313 10.6666 16C10.6666 16.3686 10.3686 16.6666 9.99996 16.6666L8.66796 16H4.66663L3.33329 16.6666C2.96463 16.6666 2.66663 16.3686 2.66663 16C2.66663 15.6313 2.96463 15.3333 3.33329 15.3333L4.66663 16H8.66796L9.99996 15.3333Z" fill="#FFA000"/>
<path d="M3.83797 14.1153C3.57663 13.854 3.57663 13.4333 3.83797 13.172C4.09863 12.9113 4.51997 12.9113 4.78063 13.172L5.25063 14.5853L8.07997 17.4147L9.49397 17.886C9.75463 18.1467 9.75463 18.568 9.49397 18.8287C9.2333 19.0893 8.81197 19.0893 8.5513 18.8287L8.07997 17.4147L5.25063 14.5853L3.83797 14.1153Z" fill="#FFA000"/>
<path d="M8.55202 13.172C8.81335 12.9107 9.23402 12.9107 9.49535 13.172C9.75602 13.4327 9.75602 13.854 9.49535 14.1147L8.08202 14.5847L5.25269 17.414L4.78136 18.828C4.52069 19.0887 4.09936 19.0887 3.83869 18.828C3.57802 18.5673 3.57802 18.146 3.83869 17.8853L5.25269 17.414L8.08202 14.5847L8.55202 13.172Z" fill="#FFA000"/>
</svg>
