<svg width="32" height="32" viewBox="0 0 32 32" fill="none" xmlns="http://www.w3.org/2000/svg">
<path d="M1.33337 6.66669H30.6667V26.6667H1.33337V6.66669Z" fill="#F5F5F5"/>
<path d="M7.27441 14.0754L10.1779 9.60172L10.5694 9.85577L7.66586 14.3295L7.27441 14.0754Z" fill="#263238"/>
<path d="M5.1958 20.6307L5.64343 20.3408L8.54301 24.817L8.09539 25.107L5.1958 20.6307Z" fill="#263238"/>
<path d="M22.4417 9.17303L22.8884 8.88169L25.8383 13.4048L25.3915 13.6961L22.4417 9.17303Z" fill="#263238"/>
<path d="M6.22864 13.4286L9.13213 8.95487L9.52358 9.20892L6.62009 13.6826L6.22864 13.4286Z" fill="#263238"/>
<path d="M22.963 12.278L23.3545 12.0241L24.6967 14.0936L24.3052 14.3476L22.963 12.278Z" fill="#263238"/>
<path d="M24.9692 22.4399L26.3121 20.3708L26.7036 20.6248L25.3607 22.6939L24.9692 22.4399Z" fill="#263238"/>
<path d="M7.75684 22.3529L8.14804 22.0985L9.49289 24.1663L9.10169 24.4207L7.75684 22.3529Z" fill="#263238"/>
<path d="M25.0393 10.9556L25.4296 10.6998L26.7817 12.7629L26.3913 13.0187L25.0393 10.9556Z" fill="#263238"/>
<path d="M22.9137 21.0911L24.2566 19.022L24.648 19.276L23.3051 21.3451L22.9137 21.0911Z" fill="#263238"/>
<path d="M23.9584 21.7362L25.3059 19.6702L25.7526 19.9615L24.4051 22.0276L23.9584 21.7362Z" fill="#263238"/>
<path d="M21.4329 9.85638L21.8233 9.60074L23.1745 11.6644L22.7841 11.92L21.4329 9.85638Z" fill="#263238"/>
<path d="M23.4025 24.8246L24.7335 22.7479L25.1264 22.9997L23.7954 25.0765L23.4025 24.8246Z" fill="#263238"/>
<path d="M6.23328 19.9226L6.68176 19.634L8.0167 21.7082L7.56822 21.9968L6.23328 19.9226Z" fill="#263238"/>
<path d="M23.5105 8.52472L23.9007 8.26872L25.2538 10.3311L24.8636 10.5871L23.5105 8.52472Z" fill="#263238"/>
<path d="M21.3375 23.4592L22.6851 21.3931L23.1318 21.6845L21.7842 23.7505L21.3375 23.4592Z" fill="#263238"/>
<path d="M22.3562 24.1716L23.6916 22.0977L24.14 22.3864L22.8046 24.4603L22.3562 24.1716Z" fill="#263238"/>
<path d="M5.17224 12.7703L8.12553 8.24948L8.57204 8.54116L5.61874 13.062L5.17224 12.7703Z" fill="#263238"/>
<path d="M7.23706 19.2432L7.62867 18.9894L10.5294 23.4649L10.1377 23.7187L7.23706 19.2432Z" fill="#263238"/>
<path d="M13.3333 19.3333C14.8 19.3333 16 18.1333 16 16.6666C16 15.2 17.2 14 18.6666 14C20.1333 14 21.3333 15.2 21.3333 16.6666C21.3333 13.7333 18.9333 11.3333 16 11.3333C13.0666 11.3333 10.6666 13.7333 10.6666 16.6666C10.6666 18.1333 11.8666 19.3333 13.3333 19.3333Z" fill="#F44336"/>
<path d="M18.6666 14C17.2 14 16 15.2 16 16.6667C16 18.1333 14.8 19.3333 13.3333 19.3333C11.8666 19.3333 10.6666 18.1333 10.6666 16.6667C10.6666 19.6 13.0666 22 16 22C18.9333 22 21.3333 19.6 21.3333 16.6667C21.3333 15.2 20.1333 14 18.6666 14Z" fill="#3949AB"/>
</svg>
