<svg width="32" height="32" viewBox="0 0 32 32" fill="none" xmlns="http://www.w3.org/2000/svg">
<path d="M2.00004 8.26667C6.33337 6.80001 10 6.66667 14.3334 7.33334C19.8 8.20001 25.2 9.46667 30.6667 7.60001C30.6667 13.2 30.6667 18.7333 30.6667 24.3333C20.8667 27.6667 11.1334 21 1.33337 24.3333C1.33337 21.5333 1.33337 18.7333 1.33337 15.9333C1.33337 13.1333 2.00004 11.0667 2.00004 8.26667Z" fill="#FE0000"/>
<path d="M1.33337 7.59998C5.66671 6.13331 10 6.66664 14.3334 7.33331C14.3334 10.1333 14.3334 12.9333 14.3334 15.7333C10 15 5.66671 14.5333 1.33337 16C1.33337 13.2 1.33337 10.4 1.33337 7.59998Z" fill="#000095"/>
<path d="M9.46663 11.3333C9.99996 11.2 10.5333 11.1333 11.0666 11.0666C10.5333 10.8666 9.99996 10.6666 9.46663 10.4666C9.86663 10.1333 10.2666 9.73331 10.6666 9.39998C10.1333 9.46664 9.59996 9.59998 9.06663 9.66664C9.19996 9.13331 9.33329 8.66664 9.53329 8.13331C9.13329 8.46664 8.73329 8.86664 8.33329 9.19998C8.19996 8.66664 8.06663 8.13331 7.86663 7.59998C7.73329 8.13331 7.59996 8.66664 7.39996 9.19998C6.99996 8.79998 6.59996 8.46664 6.19996 8.06664C6.33329 8.59998 6.46663 9.06664 6.66663 9.59998C6.13329 9.46664 5.59996 9.39998 5.06663 9.33331C5.46663 9.66664 5.86663 9.99998 6.26663 10.4C5.73329 10.6 5.19996 10.7333 4.66663 11C5.19996 11.0666 5.73329 11.1333 6.26663 11.2666C5.86663 11.6666 5.46663 12.0666 5.06663 12.5333C5.59996 12.3333 6.13329 12.1333 6.66663 12C6.53329 12.5333 6.39996 13.0666 6.19996 13.6C6.59996 13.2 6.99996 12.8 7.39996 12.4C7.53329 12.9333 7.66663 13.4666 7.86663 14C7.99996 13.4666 8.13329 12.9333 8.33329 12.4666C8.73329 12.8666 9.13329 13.2666 9.53329 13.6666C9.39996 13.1333 9.26663 12.6 9.06663 12.0666C9.59996 12.2666 10.1333 12.4 10.6666 12.6C10.2666 12.2 9.86663 11.7333 9.46663 11.3333Z" fill="white"/>
<path d="M7.86667 9.06665C8.86667 9.06665 9.73333 9.93332 9.73333 10.9333C9.73333 11.9333 8.93333 12.6666 7.86667 12.6C6.86667 12.6 6 11.8666 6 10.8666C6 9.93332 6.8 9.06665 7.86667 9.06665Z" fill="#000095"/>
<path d="M7.86666 9.26666C8.73333 9.26666 9.46666 10.0667 9.46666 10.9333C9.46666 11.8 8.73333 12.4667 7.86666 12.4667C7 12.4667 6.26666 11.8 6.26666 10.9333C6.2 10 6.93333 9.26666 7.86666 9.26666Z" fill="white"/>
<path opacity="0.9" d="M1.33337 7.60001C11.1334 4.26667 20.8667 10.9333 30.6667 7.60001C30.6667 13.2 30.6667 18.7333 30.6667 24.3333C20.8667 27.6667 11.1334 21 1.33337 24.3333C1.33337 18.8 1.33337 13.2 1.33337 7.60001Z" fill="url(#paint0_linear_43_603)"/>
<path opacity="0.83" d="M1.33337 7.60001C11.1334 4.26667 20.8667 10.9333 30.6667 7.60001C30.6667 13.2 30.6667 18.7333 30.6667 24.3333C20.8667 27.6667 11.1334 21 1.33337 24.3333C1.33337 18.8 1.33337 13.2 1.33337 7.60001Z" fill="url(#paint1_linear_43_603)"/>
<defs>
<linearGradient id="paint0_linear_43_603" x1="1.33337" y1="16" x2="30.6667" y2="16" gradientUnits="userSpaceOnUse">
<stop stop-color="white" stop-opacity="0"/>
<stop offset="0.227" stop-color="white" stop-opacity="0.3"/>
<stop offset="0.461" stop-color="white" stop-opacity="0.01"/>
<stop offset="0.468" stop-color="white" stop-opacity="0"/>
<stop offset="0.587" stop-color="white" stop-opacity="0"/>
<stop offset="0.794" stop-color="white" stop-opacity="0.25"/>
<stop offset="0.996" stop-color="white" stop-opacity="0"/>
</linearGradient>
<linearGradient id="paint1_linear_43_603" x1="1.33337" y1="16" x2="30.6667" y2="16" gradientUnits="userSpaceOnUse">
<stop offset="0.004" stop-opacity="0.63"/>
<stop offset="0.009" stop-color="#000102" stop-opacity="0.614"/>
<stop offset="0.075" stop-color="#000615" stop-opacity="0.417"/>
<stop offset="0.144" stop-color="#000A20" stop-opacity="0.215"/>
<stop offset="0.216" stop-color="#000B24" stop-opacity="0"/>
<stop offset="0.361" stop-color="#000B24" stop-opacity="0.018"/>
<stop offset="0.419" stop-color="#000510" stop-opacity="0.131"/>
<stop offset="0.479" stop-color="#000104" stop-opacity="0.247"/>
<stop offset="0.537" stop-opacity="0.36"/>
<stop offset="0.604" stop-color="#000206" stop-opacity="0.249"/>
<stop offset="0.695" stop-color="#000718" stop-opacity="0.099"/>
<stop offset="0.743" stop-color="#000B24" stop-opacity="0.018"/>
<stop offset="0.83" stop-color="#000B24" stop-opacity="0.018"/>
<stop offset="0.885" stop-color="#000A1F" stop-opacity="0.183"/>
<stop offset="0.946" stop-color="#000612" stop-opacity="0.368"/>
<stop offset="1" stop-opacity="0.53"/>
</linearGradient>
</defs>
</svg>
